<?xml version="1.0" encoding="UTF-8"?>
<!DOCTYPE svg PUBLIC "-//W3C//DTD SVG 1.1//EN" "http://www.w3.org/Graphics/SVG/1.1/DTD/svg11.dtd">
<svg version="1.1" xmlns="http://www.w3.org/2000/svg" xmlns:xlink="http://www.w3.org/1999/xlink" x="0" y="0" width="1024" height="768" viewBox="0, 0, 1024, 768">
  <defs>
    <clipPath id="Clip_1">
      <path d="M40.811,67.892 L178.163,67.892 L178.163,209.244 L40.811,209.244 z M172.163,75.892 L46.811,75.892 L46.811,201.244 L172.163,201.244 L172.163,75.892 z"/>
    </clipPath>
    <filter id="Shadow_2">
      <feGaussianBlur in="SourceAlpha" stdDeviation="2.5"/>
      <feOffset dx="0" dy="2" result="offsetblur"/>
      <feFlood flood-color="#000000"/>
      <feComposite in2="offsetblur" operator="in"/>
    </filter>
    <clipPath id="Clip_3">
      <path d="M173.464,315.909 L310.816,315.909 L310.816,457.262 L173.464,457.262 z M304.816,323.909 L179.464,323.909 L179.464,449.262 L304.816,449.262 L304.816,323.909 z"/>
    </clipPath>
    <filter id="Shadow_4">
      <feGaussianBlur in="SourceAlpha" stdDeviation="2.5"/>
      <feOffset dx="0" dy="2" result="offsetblur"/>
      <feFlood flood-color="#000000"/>
      <feComposite in2="offsetblur" operator="in"/>
    </filter>
    <clipPath id="Clip_5">
      <path d="M555.75,89.705 L693.102,89.705 L693.102,231.057 L555.75,231.057 z M687.102,97.705 L561.75,97.705 L561.75,223.057 L687.102,223.057 L687.102,97.705 z"/>
    </clipPath>
    <filter id="Shadow_6">
      <feGaussianBlur in="SourceAlpha" stdDeviation="2.5"/>
      <feOffset dx="0" dy="2" result="offsetblur"/>
      <feFlood flood-color="#000000"/>
      <feComposite in2="offsetblur" operator="in"/>
    </filter>
    <clipPath id="Clip_7">
      <path d="M6.073,313.647 L143.425,313.647 L143.425,455 L6.073,455 z M137.425,321.647 L12.073,321.647 L12.073,447 L137.425,447 L137.425,321.647 z"/>
    </clipPath>
    <filter id="Shadow_8">
      <feGaussianBlur in="SourceAlpha" stdDeviation="2.5"/>
      <feOffset dx="0" dy="2" result="offsetblur"/>
      <feFlood flood-color="#000000"/>
      <feComposite in2="offsetblur" operator="in"/>
    </filter>
    <clipPath id="Clip_9">
      <path d="M610.039,315.909 L747.391,315.909 L747.391,457.262 L610.039,457.262 z M741.391,323.909 L616.039,323.909 L616.039,449.262 L741.391,449.262 L741.391,323.909 z"/>
    </clipPath>
    <filter id="Shadow_10">
      <feGaussianBlur in="SourceAlpha" stdDeviation="2.5"/>
      <feOffset dx="0" dy="2" result="offsetblur"/>
      <feFlood flood-color="#000000"/>
      <feComposite in2="offsetblur" operator="in"/>
    </filter>
    <clipPath id="Clip_11">
      <path d="M379.31,494.611 L516.663,494.611 L516.663,635.964 L379.31,635.964 z M510.663,502.611 L385.31,502.611 L385.31,627.964 L510.663,627.964 L510.663,502.611 z"/>
    </clipPath>
    <filter id="Shadow_12">
      <feGaussianBlur in="SourceAlpha" stdDeviation="2.5"/>
      <feOffset dx="0" dy="2" result="offsetblur"/>
      <feFlood flood-color="#000000"/>
      <feComposite in2="offsetblur" operator="in"/>
    </filter>
    <clipPath id="Clip_13">
      <path d="M252.636,209.593 L389.988,209.593 L389.988,350.946 L252.636,350.946 z M383.988,217.593 L258.636,217.593 L258.636,342.946 L383.988,342.946 L383.988,217.593 z"/>
    </clipPath>
    <filter id="Shadow_14">
      <feGaussianBlur in="SourceAlpha" stdDeviation="2.5"/>
      <feOffset dx="0" dy="2" result="offsetblur"/>
      <feFlood flood-color="#000000"/>
      <feComposite in2="offsetblur" operator="in"/>
    </filter>
    <clipPath id="Clip_15">
      <path d="M886.008,413.177 L1023.361,413.177 L1023.361,554.53 L886.008,554.53 z M1017.361,421.177 L892.008,421.177 L892.008,546.53 L1017.361,546.53 L1017.361,421.177 z"/>
    </clipPath>
    <filter id="Shadow_16">
      <feGaussianBlur in="SourceAlpha" stdDeviation="2.5"/>
      <feOffset dx="0" dy="2" result="offsetblur"/>
      <feFlood flood-color="#000000"/>
      <feComposite in2="offsetblur" operator="in"/>
    </filter>
    <clipPath id="Clip_17">
      <path d="M119.175,600.927 L256.527,600.927 L256.527,742.28 L119.175,742.28 z M250.527,608.927 L125.175,608.927 L125.175,734.28 L250.527,734.28 L250.527,608.927 z"/>
    </clipPath>
    <filter id="Shadow_18">
      <feGaussianBlur in="SourceAlpha" stdDeviation="2.5"/>
      <feOffset dx="0" dy="2" result="offsetblur"/>
      <feFlood flood-color="#000000"/>
      <feComposite in2="offsetblur" operator="in"/>
    </filter>
    <clipPath id="Clip_19">
      <path d="M442.647,313.647 L580,313.647 L580,455 L442.647,455 z M574,321.647 L448.647,321.647 L448.647,447 L574,447 L574,321.647 z"/>
    </clipPath>
    <filter id="Shadow_20">
      <feGaussianBlur in="SourceAlpha" stdDeviation="2.5"/>
      <feOffset dx="0" dy="2" result="offsetblur"/>
      <feFlood flood-color="#000000"/>
      <feComposite in2="offsetblur" operator="in"/>
    </filter>
    <clipPath id="Clip_21">
      <path d="M781.954,205.069 L919.307,205.069 L919.307,346.422 L781.954,346.422 z M913.307,213.069 L787.954,213.069 L787.954,338.422 L913.307,338.422 L913.307,213.069 z"/>
    </clipPath>
    <filter id="Shadow_22">
      <feGaussianBlur in="SourceAlpha" stdDeviation="2.5"/>
      <feOffset dx="0" dy="2" result="offsetblur"/>
      <feFlood flood-color="#000000"/>
      <feComposite in2="offsetblur" operator="in"/>
    </filter>
    <clipPath id="Clip_23">
      <path d="M585.156,555.686 L722.509,555.686 L722.509,697.039 L585.156,697.039 z M716.509,563.686 L591.156,563.686 L591.156,689.039 L716.509,689.039 L716.509,563.686 z"/>
    </clipPath>
    <filter id="Shadow_24">
      <feGaussianBlur in="SourceAlpha" stdDeviation="2.5"/>
      <feOffset dx="0" dy="2" result="offsetblur"/>
      <feFlood flood-color="#000000"/>
      <feComposite in2="offsetblur" operator="in"/>
    </filter>
    <clipPath id="Clip_25">
      <path d="M368,105.539 L505.352,105.539 L505.352,246.892 L368,246.892 z M499.352,113.539 L374,113.539 L374,238.892 L499.352,238.892 L499.352,113.539 z"/>
    </clipPath>
    <filter id="Shadow_26">
      <feGaussianBlur in="SourceAlpha" stdDeviation="2.5"/>
      <feOffset dx="0" dy="2" result="offsetblur"/>
      <feFlood flood-color="#000000"/>
      <feComposite in2="offsetblur" operator="in"/>
    </filter>
    <clipPath id="Clip_27">
      <path d="M677.9,17.319 L815.253,17.319 L815.253,158.672 L677.9,158.672 z M809.253,25.319 L683.9,25.319 L683.9,150.672 L809.253,150.672 L809.253,25.319 z"/>
    </clipPath>
    <filter id="Shadow_28">
      <feGaussianBlur in="SourceAlpha" stdDeviation="2.5"/>
      <feOffset dx="0" dy="2" result="offsetblur"/>
      <feFlood flood-color="#000000"/>
      <feComposite in2="offsetblur" operator="in"/>
    </filter>
    <clipPath id="Clip_29">
      <path d="M277.518,429.012 L414.871,429.012 L414.871,570.364 L277.518,570.364 z M408.871,437.012 L283.518,437.012 L283.518,562.364 L408.871,562.364 L408.871,437.012 z"/>
    </clipPath>
    <filter id="Shadow_30">
      <feGaussianBlur in="SourceAlpha" stdDeviation="2.5"/>
      <feOffset dx="0" dy="2" result="offsetblur"/>
      <feFlood flood-color="#000000"/>
      <feComposite in2="offsetblur" operator="in"/>
    </filter>
    <clipPath id="Clip_31">
      <path d="M791.003,573.783 L928.355,573.783 L928.355,715.135 L791.003,715.135 z M922.355,581.783 L797.003,581.783 L797.003,707.135 L922.355,707.135 L922.355,581.783 z"/>
    </clipPath>
    <filter id="Shadow_32">
      <feGaussianBlur in="SourceAlpha" stdDeviation="2.5"/>
      <feOffset dx="0" dy="2" result="offsetblur"/>
      <feFlood flood-color="#000000"/>
      <feComposite in2="offsetblur" operator="in"/>
    </filter>
    <clipPath id="Clip_33">
      <path d="M725.403,372.461 L862.756,372.461 L862.756,513.813 L725.403,513.813 z M856.756,380.461 L731.403,380.461 L731.403,505.813 L856.756,505.813 L856.756,380.461 z"/>
    </clipPath>
    <filter id="Shadow_34">
      <feGaussianBlur in="SourceAlpha" stdDeviation="2.5"/>
      <feOffset dx="0" dy="2" result="offsetblur"/>
      <feFlood flood-color="#000000"/>
      <feComposite in2="offsetblur" operator="in"/>
    </filter>
    <clipPath id="Clip_35">
      <path d="M499.199,458.418 L636.551,458.418 L636.551,599.771 L499.199,599.771 z M630.551,466.418 L505.199,466.418 L505.199,591.771 L630.551,591.771 L630.551,466.418 z"/>
    </clipPath>
    <filter id="Shadow_36">
      <feGaussianBlur in="SourceAlpha" stdDeviation="2.5"/>
      <feOffset dx="0" dy="2" result="offsetblur"/>
      <feFlood flood-color="#000000"/>
      <feComposite in2="offsetblur" operator="in"/>
    </filter>
    <clipPath id="Clip_37">
      <path d="M101.078,485.563 L238.431,485.563 L238.431,626.915 L101.078,626.915 z M232.431,493.563 L107.078,493.563 L107.078,618.915 L232.431,618.915 L232.431,493.563 z"/>
    </clipPath>
    <filter id="Shadow_38">
      <feGaussianBlur in="SourceAlpha" stdDeviation="2.5"/>
      <feOffset dx="0" dy="2" result="offsetblur"/>
      <feFlood flood-color="#000000"/>
      <feComposite in2="offsetblur" operator="in"/>
    </filter>
    <clipPath id="Clip_39">
      <path d="M232.277,-3.039 L369.63,-3.039 L369.63,138.314 L232.277,138.314 z M363.63,4.961 L238.277,4.961 L238.277,130.314 L363.63,130.314 L363.63,4.961 z"/>
    </clipPath>
    <filter id="Shadow_40">
      <feGaussianBlur in="SourceAlpha" stdDeviation="2.5"/>
      <feOffset dx="0" dy="2" result="offsetblur"/>
      <feFlood flood-color="#000000"/>
      <feComposite in2="offsetblur" operator="in"/>
    </filter>
    <clipPath id="Clip_41">
      <path d="M845.292,28.63 L982.644,28.63 L982.644,169.982 L845.292,169.982 z M976.644,36.63 L851.292,36.63 L851.292,161.982 L976.644,161.982 L976.644,36.63 z"/>
    </clipPath>
    <filter id="Shadow_42">
      <feGaussianBlur in="SourceAlpha" stdDeviation="2.5"/>
      <feOffset dx="0" dy="2" result="offsetblur"/>
      <feFlood flood-color="#000000"/>
      <feComposite in2="offsetblur" operator="in"/>
    </filter>
    <clipPath id="Clip_43">
      <path d="M467.53,198.283 L604.882,198.283 L604.882,339.636 L467.53,339.636 z M598.882,206.283 L473.53,206.283 L473.53,331.636 L598.882,331.636 L598.882,206.283 z"/>
    </clipPath>
    <filter id="Shadow_44">
      <feGaussianBlur in="SourceAlpha" stdDeviation="2.5"/>
      <feOffset dx="0" dy="2" result="offsetblur"/>
      <feFlood flood-color="#000000"/>
      <feComposite in2="offsetblur" operator="in"/>
    </filter>
    <clipPath id="Clip_45">
      <path d="M286.566,596.403 L423.919,596.403 L423.919,737.756 L286.566,737.756 z M417.919,604.403 L292.566,604.403 L292.566,729.756 L417.919,729.756 L417.919,604.403 z"/>
    </clipPath>
    <filter id="Shadow_46">
      <feGaussianBlur in="SourceAlpha" stdDeviation="2.5"/>
      <feOffset dx="0" dy="2" result="offsetblur"/>
      <feFlood flood-color="#000000"/>
      <feComposite in2="offsetblur" operator="in"/>
    </filter>
    <clipPath id="Clip_47">
      <path d="M474.316,614.5 L611.669,614.5 L611.669,755.852 L474.316,755.852 z M605.669,622.5 L480.316,622.5 L480.316,747.852 L605.669,747.852 L605.669,622.5 z"/>
    </clipPath>
    <filter id="Shadow_48">
      <feGaussianBlur in="SourceAlpha" stdDeviation="2.5"/>
      <feOffset dx="0" dy="2" result="offsetblur"/>
      <feFlood flood-color="#000000"/>
      <feComposite in2="offsetblur" operator="in"/>
    </filter>
    <clipPath id="Clip_49">
      <path d="M637.183,193.759 L774.536,193.759 L774.536,335.112 L637.183,335.112 z M768.536,201.759 L643.183,201.759 L643.183,327.112 L768.536,327.112 L768.536,201.759 z"/>
    </clipPath>
    <filter id="Shadow_50">
      <feGaussianBlur in="SourceAlpha" stdDeviation="2.5"/>
      <feOffset dx="0" dy="2" result="offsetblur"/>
      <feFlood flood-color="#000000"/>
      <feComposite in2="offsetblur" operator="in"/>
    </filter>
    <clipPath id="Clip_51">
      <path d="M863.388,546.638 L1000.74,546.638 L1000.74,687.991 L863.388,687.991 z M994.74,554.638 L869.388,554.638 L869.388,679.991 L994.74,679.991 L994.74,554.638 z"/>
    </clipPath>
    <filter id="Shadow_52">
      <feGaussianBlur in="SourceAlpha" stdDeviation="2.5"/>
      <feOffset dx="0" dy="2" result="offsetblur"/>
      <feFlood flood-color="#000000"/>
      <feComposite in2="offsetblur" operator="in"/>
    </filter>
  </defs>
  <g id="Layer_1" opacity="0.097">
    <g>
      <g>
        <path d="M172.163,75.892 L172.163,201.244 L46.811,201.244 L46.811,75.892 L172.163,75.892 z" clip-path="url(#Clip_1)" filter="url(#Shadow_2)" fill="rgba(0,0,0,0.75)"/>
        <path d="M46.811,75.892 L172.163,75.892 L172.163,201.244 L46.811,201.244 L46.811,75.892 z" fill="#FFDA00"/>
      </g>
      <path d="M124.875,109.284 C119.432,104.799 112.267,103.014 105.22,104.386 C95.734,106.232 88.115,114.24 86.692,123.86 C85.532,131.71 88.321,139.549 94.153,144.832 C96.78,147.212 98.365,150.64 98.617,154.485 C98.622,154.555 98.636,154.622 98.651,154.689 L98.651,166.748 C98.651,167.412 99.189,167.95 99.854,167.95 L101.052,167.95 C101.541,171.446 104.11,174.122 107.204,174.122 L112.664,174.122 C115.759,174.122 118.327,171.446 118.815,167.95 L120.014,167.95 C120.678,167.95 121.217,167.412 121.217,166.748 L121.217,154.496 C121.217,154.494 121.218,154.492 121.218,154.488 C121.218,150.911 122.842,147.456 125.793,144.76 C130.654,140.319 133.441,134.003 133.441,127.432 C133.442,120.386 130.319,113.77 124.875,109.284 z M105.681,132.111 L103.833,132.111 C102.814,132.111 101.985,131.282 101.985,130.263 C101.985,129.243 102.814,128.414 103.833,128.414 C104.852,128.414 105.681,129.243 105.681,130.263 L105.681,132.111 z M114.188,130.263 C114.188,129.243 115.017,128.414 116.037,128.414 C117.056,128.414 117.885,129.243 117.885,130.263 C117.885,131.282 117.056,132.111 116.037,132.111 L114.19,132.111 L114.188,130.263 z M113.464,155.605 L118.812,155.605 L118.812,165.545 L117.711,165.545 C117.709,165.545 117.706,165.544 117.703,165.544 C117.7,165.544 117.698,165.545 117.695,165.545 L102.173,165.545 C102.171,165.545 102.168,165.544 102.165,165.544 C102.162,165.544 102.16,165.545 102.157,165.545 L101.057,165.545 L101.057,155.605 L112.576,155.605 M108.087,153.2 L108.087,134.516 L111.789,134.516 L111.816,153.2 L108.087,153.2 z M112.664,171.717 L107.204,171.717 C105.409,171.717 103.903,170.11 103.486,167.95 L116.382,167.95 C115.966,170.11 114.459,171.717 112.664,171.717 z M124.171,142.984 C121.066,145.821 119.228,149.41 118.884,153.2 L114.221,153.2 L114.194,134.516 L116.037,134.516 C118.382,134.516 120.291,132.608 120.291,130.263 C120.291,127.917 118.382,126.009 116.037,126.009 C113.691,126.009 111.782,127.917 111.782,130.264 L111.785,132.111 L108.087,132.111 L108.087,130.263 C108.087,127.917 106.178,126.009 103.833,126.009 C101.488,126.009 99.579,127.917 99.579,130.263 C99.579,132.608 101.488,134.516 103.833,134.516 L105.681,134.516 L105.681,153.2 L100.893,153.2 C100.383,149.187 98.596,145.611 95.767,143.049 C90.532,138.307 88.029,131.265 89.071,124.211 C90.347,115.583 97.176,108.402 105.679,106.746 C112.02,105.513 118.459,107.114 123.343,111.14 C128.231,115.168 131.035,121.106 131.035,127.433 C131.036,133.33 128.534,138.999 124.171,142.984 z" fill="#000000" id="iconfinder_Tilda_Icons_1ed_lightbulb_14_3586363"/>
    </g>
    <g>
      <g>
        <path d="M304.816,323.909 L304.816,449.262 L179.464,449.262 L179.464,323.909 L304.816,323.909 z" clip-path="url(#Clip_3)" filter="url(#Shadow_4)" fill="rgba(0,0,0,0.75)"/>
        <path d="M179.464,323.91 L304.816,323.91 L304.816,449.262 L179.464,449.262 L179.464,323.91 z" fill="#FFDA00"/>
      </g>
      <path d="M257.528,357.302 C252.085,352.817 244.92,351.032 237.874,352.404 C228.387,354.25 220.768,362.258 219.346,371.878 C218.185,379.728 220.974,387.567 226.806,392.85 C229.434,395.23 231.019,398.657 231.271,402.503 C231.275,402.573 231.289,402.64 231.304,402.707 L231.304,414.766 C231.304,415.429 231.842,415.968 232.507,415.968 L233.706,415.968 C234.194,419.463 236.763,422.14 239.857,422.14 L245.318,422.14 C248.412,422.14 250.98,419.463 251.469,415.968 L252.668,415.968 C253.331,415.968 253.87,415.429 253.87,414.766 L253.87,402.514 C253.87,402.512 253.871,402.509 253.871,402.506 C253.871,398.928 255.496,395.473 258.446,392.778 C263.307,388.337 266.094,382.021 266.094,375.45 C266.095,368.403 262.973,361.788 257.528,357.302 z M238.335,380.129 L236.487,380.129 C235.467,380.129 234.638,379.3 234.638,378.28 C234.638,377.261 235.467,376.432 236.487,376.432 C237.506,376.432 238.335,377.261 238.335,378.28 L238.335,380.129 z M246.841,378.28 C246.841,377.261 247.671,376.432 248.69,376.432 C249.71,376.432 250.539,377.261 250.539,378.28 C250.539,379.3 249.71,380.129 248.69,380.129 L246.844,380.129 L246.841,378.28 z M246.117,403.623 L251.466,403.623 L251.466,413.563 L250.365,413.563 C250.362,413.563 250.36,413.562 250.357,413.562 C250.353,413.562 250.352,413.563 250.349,413.563 L234.827,413.563 C234.824,413.563 234.822,413.562 234.819,413.562 C234.816,413.562 234.814,413.563 234.811,413.563 L233.711,413.563 L233.711,403.623 L245.23,403.623 M240.74,401.218 L240.74,382.534 L244.442,382.534 L244.47,401.218 L240.74,401.218 z M245.318,419.734 L239.857,419.734 C238.063,419.734 236.556,418.128 236.139,415.968 L249.035,415.968 C248.619,418.128 247.112,419.734 245.318,419.734 z M256.824,391.002 C253.72,393.838 251.882,397.427 251.538,401.218 L246.874,401.218 L246.848,382.534 L248.69,382.534 C251.036,382.534 252.944,380.626 252.944,378.28 C252.944,375.935 251.036,374.027 248.69,374.027 C246.344,374.027 244.436,375.935 244.436,378.282 L244.438,380.129 L240.74,380.129 L240.74,378.28 C240.74,375.935 238.832,374.027 236.487,374.027 C234.141,374.027 232.233,375.935 232.233,378.28 C232.233,380.626 234.141,382.534 236.487,382.534 L238.335,382.534 L238.335,401.218 L233.546,401.218 C233.036,397.205 231.25,393.628 228.42,391.066 C223.186,386.324 220.682,379.283 221.725,372.229 C223,363.601 229.83,356.42 238.332,354.764 C244.673,353.531 251.112,355.131 255.997,359.158 C260.885,363.186 263.688,369.124 263.688,375.451 C263.69,381.347 261.187,387.016 256.824,391.002 z" fill="#000000" id="iconfinder_Tilda_Icons_1ed_lightbulb_14_3586363"/>
    </g>
    <g>
      <g>
        <path d="M687.102,97.705 L687.102,223.057 L561.75,223.057 L561.75,97.705 L687.102,97.705 z" clip-path="url(#Clip_5)" filter="url(#Shadow_6)" fill="rgba(0,0,0,0.75)"/>
        <path d="M561.75,97.705 L687.102,97.705 L687.102,223.057 L561.75,223.057 L561.75,97.705 z" fill="#FFDA00"/>
      </g>
      <path d="M639.814,131.097 C634.371,126.612 627.206,124.827 620.159,126.199 C610.673,128.046 603.054,136.054 601.631,145.673 C600.471,153.523 603.26,161.363 609.092,166.645 C611.719,169.025 613.305,172.453 613.556,176.298 C613.561,176.368 613.575,176.436 613.59,176.502 L613.59,188.561 C613.59,189.225 614.128,189.764 614.793,189.764 L615.992,189.764 C616.48,193.259 619.049,195.935 622.143,195.935 L627.604,195.935 C630.698,195.935 633.266,193.259 633.755,189.764 L634.953,189.764 C635.617,189.764 636.156,189.225 636.156,188.561 L636.156,176.31 C636.156,176.307 636.157,176.305 636.157,176.302 C636.157,172.724 637.781,169.269 640.732,166.573 C645.593,162.132 648.38,155.816 648.38,149.245 C648.381,142.199 645.258,135.584 639.814,131.097 z M620.621,153.924 L618.772,153.924 C617.753,153.924 616.924,153.095 616.924,152.076 C616.924,151.057 617.753,150.228 618.772,150.228 C619.791,150.228 620.621,151.057 620.621,152.076 L620.621,153.924 z M629.127,152.076 C629.127,151.057 629.956,150.228 630.976,150.228 C631.995,150.228 632.824,151.057 632.824,152.076 C632.824,153.095 631.995,153.924 630.976,153.924 L629.13,153.924 L629.127,152.076 z M628.403,177.419 L633.751,177.419 L633.751,187.358 L632.65,187.358 C632.648,187.358 632.646,187.357 632.642,187.357 C632.639,187.357 632.638,187.358 632.634,187.358 L617.112,187.358 C617.11,187.358 617.108,187.357 617.104,187.357 C617.101,187.357 617.1,187.358 617.096,187.358 L615.996,187.358 L615.996,177.419 L627.516,177.419 M623.026,175.013 L623.026,156.33 L626.728,156.33 L626.755,175.013 L623.026,175.013 z M627.604,193.53 L622.143,193.53 C620.349,193.53 618.842,191.923 618.425,189.764 L631.321,189.764 C630.905,191.923 629.398,193.53 627.604,193.53 z M639.11,164.798 C636.005,167.634 634.168,171.223 633.824,175.013 L629.16,175.013 L629.134,156.33 L630.976,156.33 C633.322,156.33 635.23,154.421 635.23,152.076 C635.23,149.73 633.322,147.822 630.976,147.822 C628.63,147.822 626.722,149.73 626.722,152.077 L626.724,153.924 L623.026,153.924 L623.026,152.076 C623.026,149.73 621.118,147.822 618.772,147.822 C616.427,147.822 614.519,149.73 614.519,152.076 C614.519,154.421 616.427,156.33 618.772,156.33 L620.621,156.33 L620.621,175.013 L615.832,175.013 C615.322,171 613.536,167.424 610.706,164.862 C605.471,160.12 602.968,153.078 604.01,146.024 C605.286,137.397 612.115,130.215 620.618,128.56 C626.959,127.326 633.398,128.927 638.283,132.954 C643.171,136.981 645.974,142.92 645.974,149.246 C645.975,155.143 643.473,160.812 639.11,164.798 z" fill="#000000" id="iconfinder_Tilda_Icons_1ed_lightbulb_14_3586363"/>
    </g>
    <g>
      <g>
        <path d="M137.425,321.647 L137.425,447 L12.073,447 L12.073,321.647 L137.425,321.647 z" clip-path="url(#Clip_7)" filter="url(#Shadow_8)" fill="rgba(0,0,0,0.75)"/>
        <path d="M12.073,321.648 L137.425,321.648 L137.425,447 L12.073,447 L12.073,321.648 z" fill="#FFDA00"/>
      </g>
      <path d="M90.137,355.04 C84.694,350.555 77.529,348.77 70.482,350.142 C60.996,351.988 53.377,359.996 51.954,369.616 C50.794,377.466 53.583,385.305 59.415,390.588 C62.042,392.968 63.627,396.395 63.879,400.241 C63.884,400.311 63.898,400.378 63.913,400.445 L63.913,412.503 C63.913,413.167 64.451,413.706 65.116,413.706 L66.314,413.706 C66.803,417.201 69.372,419.878 72.466,419.878 L77.927,419.878 C81.021,419.878 83.589,417.201 84.077,413.706 L85.276,413.706 C85.94,413.706 86.479,413.167 86.479,412.503 L86.479,400.252 C86.479,400.25 86.48,400.247 86.48,400.244 C86.48,396.666 88.104,393.211 91.055,390.516 C95.916,386.075 98.703,379.759 98.703,373.188 C98.704,366.141 95.581,359.526 90.137,355.04 z M70.943,377.867 L69.095,377.867 C68.076,377.867 67.247,377.038 67.247,376.018 C67.247,374.999 68.076,374.17 69.095,374.17 C70.114,374.17 70.943,374.999 70.943,376.018 L70.943,377.867 z M79.45,376.018 C79.45,374.999 80.279,374.17 81.299,374.17 C82.318,374.17 83.147,374.999 83.147,376.018 C83.147,377.038 82.318,377.867 81.299,377.867 L79.452,377.867 L79.45,376.018 z M78.726,401.361 L84.074,401.361 L84.074,411.301 L82.973,411.301 C82.971,411.301 82.968,411.3 82.965,411.3 C82.962,411.3 82.96,411.301 82.957,411.301 L67.435,411.301 C67.433,411.301 67.431,411.3 67.427,411.3 C67.424,411.3 67.423,411.301 67.419,411.301 L66.319,411.301 L66.319,401.361 L77.838,401.361 M73.349,398.956 L73.349,380.272 L77.051,380.272 L77.078,398.956 L73.349,398.956 z M77.927,417.472 L72.466,417.472 C70.672,417.472 69.165,415.866 68.748,413.706 L81.644,413.706 C81.228,415.866 79.721,417.472 77.927,417.472 z M89.433,388.74 C86.328,391.576 84.49,395.165 84.146,398.956 L79.483,398.956 L79.456,380.272 L81.299,380.272 C83.644,380.272 85.553,378.364 85.553,376.018 C85.553,373.673 83.644,371.765 81.299,371.765 C78.953,371.765 77.045,373.673 77.045,376.02 L77.047,377.867 L73.349,377.867 L73.349,376.018 C73.349,373.673 71.441,371.765 69.095,371.765 C66.75,371.765 64.841,373.673 64.841,376.018 C64.841,378.364 66.75,380.272 69.095,380.272 L70.943,380.272 L70.943,398.956 L66.155,398.956 C65.645,394.942 63.858,391.366 61.029,388.804 C55.794,384.062 53.291,377.021 54.333,369.967 C55.609,361.339 62.438,354.158 70.941,352.502 C77.282,351.269 83.721,352.869 88.605,356.896 C93.493,360.924 96.297,366.862 96.297,373.189 C96.298,379.085 93.796,384.754 89.433,388.74 z" fill="#000000" id="iconfinder_Tilda_Icons_1ed_lightbulb_14_3586363"/>
    </g>
    <g>
      <g>
        <path d="M741.391,323.909 L741.391,449.262 L616.039,449.262 L616.039,323.909 L741.391,323.909 z" clip-path="url(#Clip_9)" filter="url(#Shadow_10)" fill="rgba(0,0,0,0.75)"/>
        <path d="M616.039,323.91 L741.391,323.91 L741.391,449.262 L616.039,449.262 L616.039,323.91 z" fill="#FFDA00"/>
      </g>
      <path d="M694.103,357.302 C688.66,352.817 681.495,351.032 674.449,352.404 C664.962,354.25 657.343,362.258 655.921,371.878 C654.76,379.728 657.549,387.567 663.381,392.85 C666.008,395.23 667.594,398.657 667.845,402.503 C667.85,402.573 667.864,402.64 667.879,402.707 L667.879,414.766 C667.879,415.429 668.417,415.968 669.082,415.968 L670.281,415.968 C670.769,419.463 673.338,422.14 676.432,422.14 L681.893,422.14 C684.987,422.14 687.555,419.463 688.044,415.968 L689.242,415.968 C689.906,415.968 690.445,415.429 690.445,414.766 L690.445,402.514 C690.445,402.512 690.446,402.509 690.446,402.506 C690.446,398.928 692.07,395.473 695.021,392.778 C699.882,388.337 702.669,382.021 702.669,375.45 C702.67,368.403 699.548,361.788 694.103,357.302 z M674.91,380.129 L673.061,380.129 C672.042,380.129 671.213,379.3 671.213,378.28 C671.213,377.261 672.042,376.432 673.061,376.432 C674.081,376.432 674.91,377.261 674.91,378.28 L674.91,380.129 z M683.416,378.28 C683.416,377.261 684.245,376.432 685.265,376.432 C686.284,376.432 687.114,377.261 687.114,378.28 C687.114,379.3 686.284,380.129 685.265,380.129 L683.419,380.129 L683.416,378.28 z M682.692,403.623 L688.04,403.623 L688.04,413.563 L686.94,413.563 C686.937,413.563 686.935,413.562 686.932,413.562 C686.928,413.562 686.927,413.563 686.924,413.563 L671.402,413.563 C671.399,413.563 671.397,413.562 671.394,413.562 C671.39,413.562 671.389,413.563 671.386,413.563 L670.285,413.563 L670.285,403.623 L681.805,403.623 M677.315,401.218 L677.315,382.534 L681.017,382.534 L681.044,401.218 L677.315,401.218 z M681.893,419.734 L676.432,419.734 C674.638,419.734 673.131,418.128 672.714,415.968 L685.61,415.968 C685.194,418.128 683.687,419.734 681.893,419.734 z M693.399,391.002 C690.294,393.838 688.457,397.427 688.113,401.218 L683.449,401.218 L683.423,382.534 L685.265,382.534 C687.611,382.534 689.519,380.626 689.519,378.28 C689.519,375.935 687.611,374.027 685.265,374.027 C682.919,374.027 681.011,375.935 681.011,378.282 L681.013,380.129 L677.315,380.129 L677.315,378.28 C677.315,375.935 675.407,374.027 673.061,374.027 C670.716,374.027 668.808,375.935 668.808,378.28 C668.808,380.626 670.716,382.534 673.061,382.534 L674.91,382.534 L674.91,401.218 L670.121,401.218 C669.611,397.205 667.825,393.628 664.995,391.066 C659.761,386.324 657.257,379.283 658.3,372.229 C659.575,363.601 666.405,356.42 674.907,354.764 C681.248,353.531 687.687,355.131 692.572,359.158 C697.46,363.186 700.263,369.124 700.263,375.451 C700.264,381.347 697.762,387.016 693.399,391.002 z" fill="#000000" id="iconfinder_Tilda_Icons_1ed_lightbulb_14_3586363"/>
    </g>
    <g>
      <g>
        <path d="M510.663,502.611 L510.663,627.964 L385.31,627.964 L385.31,502.611 L510.663,502.611 z" clip-path="url(#Clip_11)" filter="url(#Shadow_12)" fill="rgba(0,0,0,0.75)"/>
        <path d="M385.31,502.611 L510.663,502.611 L510.663,627.964 L385.31,627.964 L385.31,502.611 z" fill="#FFDA00"/>
      </g>
      <path d="M463.374,536.004 C457.932,531.518 450.766,529.733 443.72,531.105 C434.233,532.952 426.614,540.96 425.192,550.579 C424.032,558.429 426.82,566.269 432.652,571.551 C435.28,573.931 436.865,577.359 437.117,581.205 C437.122,581.274 437.135,581.342 437.15,581.408 L437.15,593.467 C437.15,594.131 437.689,594.67 438.353,594.67 L439.552,594.67 C440.04,598.165 442.609,600.842 445.704,600.842 L451.164,600.842 C454.258,600.842 456.827,598.165 457.315,594.67 L458.514,594.67 C459.178,594.67 459.717,594.131 459.717,593.467 L459.717,581.216 C459.717,581.213 459.717,581.211 459.717,581.208 C459.717,577.63 461.342,574.175 464.293,571.479 C469.153,567.039 471.94,560.723 471.94,554.152 C471.941,547.105 468.819,540.49 463.374,536.004 z M444.181,558.83 L442.333,558.83 C441.314,558.83 440.485,558.001 440.485,556.982 C440.485,555.963 441.314,555.134 442.333,555.134 C443.352,555.134 444.181,555.963 444.181,556.982 L444.181,558.83 z M452.688,556.982 C452.688,555.963 453.517,555.134 454.537,555.134 C455.556,555.134 456.385,555.963 456.385,556.982 C456.385,558.001 455.556,558.83 454.537,558.83 L452.69,558.83 L452.688,556.982 z M451.964,582.325 L457.312,582.325 L457.312,592.264 L456.211,592.264 C456.208,592.264 456.206,592.264 456.203,592.264 C456.2,592.264 456.198,592.264 456.195,592.264 L440.673,592.264 C440.671,592.264 440.668,592.264 440.665,592.264 C440.662,592.264 440.66,592.264 440.657,592.264 L439.557,592.264 L439.557,582.325 L451.076,582.325 M446.586,579.919 L446.586,561.236 L450.289,561.236 L450.316,579.919 L446.586,579.919 z M451.164,598.436 L445.704,598.436 C443.909,598.436 442.402,596.829 441.986,594.67 L454.881,594.67 C454.465,596.829 452.959,598.436 451.164,598.436 z M462.67,569.704 C459.566,572.54 457.728,576.129 457.384,579.919 L452.721,579.919 L452.694,561.236 L454.537,561.236 C456.882,561.236 458.79,559.327 458.79,556.982 C458.79,554.637 456.882,552.728 454.537,552.728 C452.19,552.728 450.282,554.637 450.282,556.984 L450.285,558.83 L446.586,558.83 L446.586,556.982 C446.586,554.637 444.678,552.728 442.333,552.728 C439.987,552.728 438.079,554.637 438.079,556.982 C438.079,559.327 439.987,561.236 442.333,561.236 L444.181,561.236 L444.181,579.919 L439.392,579.919 C438.882,575.906 437.096,572.33 434.266,569.768 C429.032,565.026 426.529,557.984 427.571,550.931 C428.847,542.303 435.676,535.122 444.179,533.466 C450.519,532.233 456.958,533.833 461.843,537.86 C466.731,541.887 469.534,547.826 469.534,554.152 C469.536,560.049 467.033,565.718 462.67,569.704 z" fill="#000000" id="iconfinder_Tilda_Icons_1ed_lightbulb_14_3586363"/>
    </g>
    <g>
      <g>
        <path d="M383.988,217.593 L383.988,342.946 L258.636,342.946 L258.636,217.593 L383.988,217.593 z" clip-path="url(#Clip_13)" filter="url(#Shadow_14)" fill="rgba(0,0,0,0.75)"/>
        <path d="M258.636,217.593 L383.988,217.593 L383.988,342.946 L258.636,342.946 L258.636,217.593 z" fill="#FFDA00"/>
      </g>
      <path d="M336.7,250.986 C331.257,246.5 324.092,244.715 317.045,246.087 C307.559,247.934 299.94,255.942 298.517,265.562 C297.357,273.412 300.146,281.251 305.978,286.534 C308.605,288.913 310.19,292.341 310.442,296.187 C310.447,296.257 310.461,296.324 310.476,296.391 L310.476,308.449 C310.476,309.113 311.014,309.652 311.679,309.652 L312.877,309.652 C313.366,313.147 315.935,315.824 319.029,315.824 L324.49,315.824 C327.584,315.824 330.152,313.147 330.64,309.652 L331.839,309.652 C332.503,309.652 333.042,309.113 333.042,308.449 L333.042,296.198 C333.042,296.196 333.043,296.193 333.043,296.19 C333.043,292.612 334.667,289.157 337.618,286.461 C342.479,282.021 345.266,275.705 345.266,269.134 C345.267,262.087 342.144,255.472 336.7,250.986 z M317.506,273.812 L315.658,273.812 C314.639,273.812 313.81,272.983 313.81,271.964 C313.81,270.945 314.639,270.116 315.658,270.116 C316.677,270.116 317.506,270.945 317.506,271.964 L317.506,273.812 z M326.013,271.964 C326.013,270.945 326.842,270.116 327.862,270.116 C328.881,270.116 329.71,270.945 329.71,271.964 C329.71,272.983 328.881,273.812 327.862,273.812 L326.015,273.812 L326.013,271.964 z M325.289,297.307 L330.637,297.307 L330.637,307.247 L329.536,307.247 C329.534,307.247 329.531,307.246 329.528,307.246 C329.525,307.246 329.523,307.247 329.52,307.247 L313.998,307.247 C313.996,307.247 313.994,307.246 313.99,307.246 C313.987,307.246 313.986,307.247 313.982,307.247 L312.882,307.247 L312.882,297.307 L324.401,297.307 M319.912,294.901 L319.912,276.218 L323.614,276.218 L323.641,294.901 L319.912,294.901 z M324.49,313.418 L319.029,313.418 C317.235,313.418 315.728,311.811 315.311,309.652 L328.207,309.652 C327.791,311.811 326.284,313.418 324.49,313.418 z M335.996,284.686 C332.891,287.522 331.053,291.111 330.709,294.901 L326.046,294.901 L326.019,276.218 L327.862,276.218 C330.207,276.218 332.116,274.31 332.116,271.964 C332.116,269.619 330.207,267.71 327.862,267.71 C325.516,267.71 323.608,269.619 323.608,271.966 L323.61,273.812 L319.912,273.812 L319.912,271.964 C319.912,269.619 318.004,267.71 315.658,267.71 C313.313,267.71 311.404,269.619 311.404,271.964 C311.404,274.31 313.313,276.218 315.658,276.218 L317.506,276.218 L317.506,294.901 L312.718,294.901 C312.208,290.888 310.421,287.312 307.592,284.75 C302.357,280.008 299.854,272.967 300.896,265.913 C302.172,257.285 309.001,250.104 317.504,248.448 C323.845,247.215 330.284,248.815 335.168,252.842 C340.056,256.87 342.86,262.808 342.86,269.135 C342.861,275.031 340.359,280.7 335.996,284.686 z" fill="#000000" id="iconfinder_Tilda_Icons_1ed_lightbulb_14_3586363"/>
    </g>
    <g>
      <g>
        <path d="M1017.361,421.177 L1017.361,546.53 L892.008,546.53 L892.008,421.177 L1017.361,421.177 z" clip-path="url(#Clip_15)" filter="url(#Shadow_16)" fill="rgba(0,0,0,0.75)"/>
        <path d="M892.009,421.178 L1017.361,421.178 L1017.361,546.53 L892.009,546.53 L892.009,421.178 z" fill="#FFDA00"/>
      </g>
      <path d="M970.073,454.57 C964.63,450.085 957.465,448.3 950.418,449.672 C940.932,451.518 933.313,459.526 931.89,469.146 C930.73,476.996 933.519,484.835 939.351,490.118 C941.978,492.498 943.563,495.925 943.815,499.771 C943.82,499.841 943.834,499.908 943.849,499.975 L943.849,512.033 C943.849,512.697 944.387,513.236 945.052,513.236 L946.25,513.236 C946.739,516.731 949.308,519.408 952.402,519.408 L957.862,519.408 C960.957,519.408 963.525,516.731 964.013,513.236 L965.212,513.236 C965.876,513.236 966.415,512.697 966.415,512.033 L966.415,499.782 C966.415,499.78 966.416,499.777 966.416,499.774 C966.416,496.196 968.04,492.741 970.991,490.046 C975.852,485.605 978.639,479.289 978.639,472.718 C978.64,465.671 975.517,459.056 970.073,454.57 z M950.879,477.397 L949.031,477.397 C948.012,477.397 947.183,476.568 947.183,475.548 C947.183,474.529 948.012,473.7 949.031,473.7 C950.05,473.7 950.879,474.529 950.879,475.548 L950.879,477.397 z M959.386,475.548 C959.386,474.529 960.215,473.7 961.235,473.7 C962.254,473.7 963.083,474.529 963.083,475.548 C963.083,476.568 962.254,477.397 961.235,477.397 L959.388,477.397 L959.386,475.548 z M958.662,500.891 L964.01,500.891 L964.01,510.831 L962.909,510.831 C962.907,510.831 962.904,510.83 962.901,510.83 C962.898,510.83 962.896,510.831 962.893,510.831 L947.371,510.831 C947.369,510.831 947.366,510.83 947.363,510.83 C947.36,510.83 947.358,510.831 947.355,510.831 L946.255,510.831 L946.255,500.891 L957.774,500.891 M953.285,498.486 L953.285,479.802 L956.987,479.802 L957.014,498.486 L953.285,498.486 z M957.862,517.002 L952.402,517.002 C950.607,517.002 949.101,515.396 948.684,513.236 L961.58,513.236 C961.164,515.396 959.657,517.002 957.862,517.002 z M969.369,488.27 C966.264,491.106 964.426,494.695 964.082,498.486 L959.419,498.486 L959.392,479.802 L961.235,479.802 C963.58,479.802 965.489,477.894 965.489,475.548 C965.489,473.203 963.58,471.295 961.235,471.295 C958.889,471.295 956.98,473.203 956.98,475.55 L956.983,477.397 L953.285,477.397 L953.285,475.548 C953.285,473.203 951.376,471.295 949.031,471.295 C946.686,471.295 944.777,473.203 944.777,475.548 C944.777,477.894 946.686,479.802 949.031,479.802 L950.879,479.802 L950.879,498.486 L946.091,498.486 C945.581,494.473 943.794,490.896 940.965,488.334 C935.73,483.592 933.227,476.551 934.269,469.497 C935.545,460.869 942.374,453.688 950.877,452.032 C957.218,450.799 963.657,452.399 968.541,456.426 C973.429,460.454 976.233,466.392 976.233,472.719 C976.234,478.615 973.732,484.284 969.369,488.27 z" fill="#000000" id="iconfinder_Tilda_Icons_1ed_lightbulb_14_3586363"/>
    </g>
    <g>
      <g>
        <path d="M250.527,608.927 L250.527,734.28 L125.175,734.28 L125.175,608.927 L250.527,608.927 z" clip-path="url(#Clip_17)" filter="url(#Shadow_18)" fill="rgba(0,0,0,0.75)"/>
        <path d="M125.175,608.927 L250.527,608.927 L250.527,734.28 L125.175,734.28 L125.175,608.927 z" fill="#FFDA00"/>
      </g>
      <path d="M203.239,642.32 C197.796,637.834 190.631,636.049 183.585,637.421 C174.098,639.268 166.479,647.276 165.057,656.896 C163.896,664.745 166.685,672.585 172.517,677.867 C175.145,680.247 176.73,683.675 176.981,687.521 C176.986,687.591 177,687.658 177.015,687.724 L177.015,699.783 C177.015,700.447 177.553,700.986 178.218,700.986 L179.417,700.986 C179.905,704.481 182.474,707.158 185.568,707.158 L191.029,707.158 C194.123,707.158 196.691,704.481 197.18,700.986 L198.378,700.986 C199.042,700.986 199.581,700.447 199.581,699.783 L199.581,687.532 C199.581,687.53 199.582,687.527 199.582,687.524 C199.582,683.946 201.207,680.491 204.157,677.795 C209.018,673.355 211.805,667.039 211.805,660.468 C211.806,653.421 208.684,646.806 203.239,642.32 z M184.046,665.146 L182.197,665.146 C181.178,665.146 180.349,664.317 180.349,663.298 C180.349,662.279 181.178,661.45 182.197,661.45 C183.217,661.45 184.046,662.279 184.046,663.298 L184.046,665.146 z M192.552,663.298 C192.552,662.279 193.381,661.45 194.401,661.45 C195.42,661.45 196.25,662.279 196.25,663.298 C196.25,664.317 195.42,665.146 194.401,665.146 L192.555,665.146 L192.552,663.298 z M191.828,688.641 L197.176,688.641 L197.176,698.581 L196.076,698.581 C196.073,698.581 196.071,698.58 196.068,698.58 C196.064,698.58 196.063,698.581 196.06,698.581 L180.538,698.581 C180.535,698.581 180.533,698.58 180.53,698.58 C180.526,698.58 180.525,698.581 180.522,698.581 L179.421,698.581 L179.421,688.641 L190.941,688.641 M186.451,686.235 L186.451,667.552 L190.153,667.552 L190.18,686.235 L186.451,686.235 z M191.029,704.752 L185.568,704.752 C183.774,704.752 182.267,703.145 181.85,700.986 L194.746,700.986 C194.33,703.145 192.823,704.752 191.029,704.752 z M202.535,676.02 C199.43,678.856 197.593,682.445 197.249,686.235 L192.585,686.235 L192.559,667.552 L194.401,667.552 C196.747,667.552 198.655,665.644 198.655,663.298 C198.655,660.953 196.747,659.044 194.401,659.044 C192.055,659.044 190.147,660.953 190.147,663.3 L190.149,665.146 L186.451,665.146 L186.451,663.298 C186.451,660.953 184.543,659.044 182.197,659.044 C179.852,659.044 177.944,660.953 177.944,663.298 C177.944,665.644 179.852,667.552 182.197,667.552 L184.046,667.552 L184.046,686.235 L179.257,686.235 C178.747,682.222 176.961,678.646 174.131,676.084 C168.897,671.342 166.393,664.3 167.436,657.247 C168.711,648.619 175.541,641.438 184.043,639.782 C190.384,638.549 196.823,640.149 201.708,644.176 C206.596,648.204 209.399,654.142 209.399,660.469 C209.4,666.365 206.898,672.034 202.535,676.02 z" fill="#000000" id="iconfinder_Tilda_Icons_1ed_lightbulb_14_3586363"/>
    </g>
    <g>
      <g>
        <path d="M574,321.647 L574,447 L448.647,447 L448.647,321.647 L574,321.647 z" clip-path="url(#Clip_19)" filter="url(#Shadow_20)" fill="rgba(0,0,0,0.75)"/>
        <path d="M448.648,321.648 L574,321.648 L574,447 L448.648,447 L448.648,321.648 z" fill="#FFDA00"/>
      </g>
      <path d="M526.712,355.04 C521.269,350.555 514.104,348.77 507.057,350.142 C497.571,351.988 489.952,359.996 488.529,369.616 C487.369,377.466 490.158,385.305 495.989,390.588 C498.617,392.968 500.202,396.395 500.454,400.241 C500.459,400.311 500.473,400.378 500.488,400.445 L500.488,412.503 C500.488,413.167 501.026,413.706 501.691,413.706 L502.889,413.706 C503.378,417.201 505.947,419.878 509.041,419.878 L514.501,419.878 C517.596,419.878 520.164,417.201 520.652,413.706 L521.851,413.706 C522.515,413.706 523.054,413.167 523.054,412.503 L523.054,400.252 C523.054,400.25 523.055,400.247 523.055,400.244 C523.055,396.666 524.679,393.211 527.63,390.516 C532.491,386.075 535.278,379.759 535.278,373.188 C535.279,366.141 532.156,359.526 526.712,355.04 z M507.518,377.867 L505.67,377.867 C504.651,377.867 503.822,377.038 503.822,376.018 C503.822,374.999 504.651,374.17 505.67,374.17 C506.689,374.17 507.518,374.999 507.518,376.018 L507.518,377.867 z M516.025,376.018 C516.025,374.999 516.854,374.17 517.874,374.17 C518.893,374.17 519.722,374.999 519.722,376.018 C519.722,377.038 518.893,377.867 517.874,377.867 L516.027,377.867 L516.025,376.018 z M515.301,401.361 L520.649,401.361 L520.649,411.301 L519.548,411.301 C519.546,411.301 519.543,411.3 519.54,411.3 C519.537,411.3 519.535,411.301 519.532,411.301 L504.01,411.301 C504.008,411.301 504.005,411.3 504.002,411.3 C503.999,411.3 503.997,411.301 503.994,411.301 L502.894,411.301 L502.894,401.361 L514.413,401.361 M509.924,398.956 L509.924,380.272 L513.626,380.272 L513.653,398.956 L509.924,398.956 z M514.501,417.472 L509.041,417.472 C507.246,417.472 505.74,415.866 505.323,413.706 L518.219,413.706 C517.803,415.866 516.296,417.472 514.501,417.472 z M526.008,388.74 C522.903,391.576 521.065,395.165 520.721,398.956 L516.058,398.956 L516.031,380.272 L517.874,380.272 C520.219,380.272 522.128,378.364 522.128,376.018 C522.128,373.673 520.219,371.765 517.874,371.765 C515.528,371.765 513.619,373.673 513.619,376.02 L513.622,377.867 L509.924,377.867 L509.924,376.018 C509.924,373.673 508.015,371.765 505.67,371.765 C503.325,371.765 501.416,373.673 501.416,376.018 C501.416,378.364 503.325,380.272 505.67,380.272 L507.518,380.272 L507.518,398.956 L502.73,398.956 C502.22,394.942 500.433,391.366 497.604,388.804 C492.369,384.062 489.866,377.021 490.908,369.967 C492.184,361.339 499.013,354.158 507.516,352.502 C513.857,351.269 520.295,352.869 525.18,356.896 C530.068,360.924 532.871,366.862 532.871,373.189 C532.873,379.085 530.371,384.754 526.008,388.74 z" fill="#000000" id="iconfinder_Tilda_Icons_1ed_lightbulb_14_3586363"/>
    </g>
    <g>
      <g>
        <path d="M913.307,213.069 L913.307,338.422 L787.954,338.422 L787.954,213.069 L913.307,213.069 z" clip-path="url(#Clip_21)" filter="url(#Shadow_22)" fill="rgba(0,0,0,0.75)"/>
        <path d="M787.954,213.069 L913.307,213.069 L913.307,338.422 L787.954,338.422 L787.954,213.069 z" fill="#FFDA00"/>
      </g>
      <path d="M866.019,246.462 C860.576,241.976 853.411,240.191 846.364,241.563 C836.878,243.41 829.259,251.418 827.836,261.038 C826.676,268.887 829.465,276.727 835.296,282.009 C837.924,284.389 839.509,287.817 839.761,291.663 C839.766,291.733 839.779,291.8 839.795,291.866 L839.795,303.925 C839.795,304.589 840.333,305.128 840.997,305.128 L842.196,305.128 C842.685,308.623 845.254,311.3 848.348,311.3 L853.808,311.3 C856.903,311.3 859.471,308.623 859.959,305.128 L861.158,305.128 C861.822,305.128 862.361,304.589 862.361,303.925 L862.361,291.674 C862.361,291.672 862.362,291.669 862.362,291.666 C862.362,288.088 863.986,284.633 866.937,281.937 C871.797,277.497 874.585,271.181 874.585,264.61 C874.586,257.563 871.463,250.948 866.019,246.462 z M846.825,269.288 L844.977,269.288 C843.958,269.288 843.129,268.459 843.129,267.44 C843.129,266.421 843.958,265.592 844.977,265.592 C845.996,265.592 846.825,266.421 846.825,267.44 L846.825,269.288 z M855.332,267.44 C855.332,266.421 856.161,265.592 857.181,265.592 C858.2,265.592 859.029,266.421 859.029,267.44 C859.029,268.459 858.2,269.288 857.181,269.288 L855.334,269.288 L855.332,267.44 z M854.608,292.783 L859.956,292.783 L859.956,302.722 L858.855,302.722 C858.853,302.722 858.85,302.722 858.847,302.722 C858.844,302.722 858.842,302.722 858.839,302.722 L843.317,302.722 C843.315,302.722 843.312,302.722 843.309,302.722 C843.306,302.722 843.304,302.722 843.301,302.722 L842.201,302.722 L842.201,292.783 L853.72,292.783 M849.231,290.377 L849.231,271.694 L852.933,271.694 L852.96,290.377 L849.231,290.377 z M853.808,308.894 L848.348,308.894 C846.553,308.894 845.047,307.287 844.63,305.128 L857.526,305.128 C857.109,307.287 855.603,308.894 853.808,308.894 z M865.315,280.162 C862.21,282.998 860.372,286.587 860.028,290.377 L855.365,290.377 L855.338,271.694 L857.181,271.694 C859.526,271.694 861.435,269.786 861.435,267.44 C861.435,265.095 859.526,263.186 857.181,263.186 C854.835,263.186 852.926,265.095 852.926,267.442 L852.929,269.288 L849.231,269.288 L849.231,267.44 C849.231,265.095 847.322,263.186 844.977,263.186 C842.632,263.186 840.723,265.095 840.723,267.44 C840.723,269.786 842.632,271.694 844.977,271.694 L846.825,271.694 L846.825,290.377 L842.037,290.377 C841.527,286.364 839.74,282.788 836.91,280.226 C831.676,275.484 829.173,268.442 830.215,261.389 C831.491,252.761 838.32,245.58 846.823,243.924 C853.164,242.691 859.602,244.291 864.487,248.318 C869.375,252.346 872.178,258.284 872.178,264.61 C872.18,270.507 869.677,276.176 865.315,280.162 z" fill="#000000" id="iconfinder_Tilda_Icons_1ed_lightbulb_14_3586363"/>
    </g>
    <g>
      <g>
        <path d="M716.509,563.686 L716.509,689.039 L591.156,689.039 L591.156,563.686 L716.509,563.686 z" clip-path="url(#Clip_23)" filter="url(#Shadow_24)" fill="rgba(0,0,0,0.75)"/>
        <path d="M591.156,563.686 L716.509,563.686 L716.509,689.039 L591.156,689.039 L591.156,563.686 z" fill="#FFDA00"/>
      </g>
      <path d="M669.221,597.079 C663.778,592.593 656.613,590.809 649.566,592.18 C640.08,594.027 632.461,602.035 631.038,611.655 C629.878,619.505 632.667,627.344 638.498,632.627 C641.126,635.006 642.711,638.434 642.963,642.28 C642.968,642.35 642.981,642.417 642.997,642.484 L642.997,654.542 C642.997,655.206 643.535,655.745 644.199,655.745 L645.398,655.745 C645.886,659.24 648.456,661.917 651.55,661.917 L657.01,661.917 C660.105,661.917 662.673,659.24 663.161,655.745 L664.36,655.745 C665.024,655.745 665.563,655.206 665.563,654.542 L665.563,642.291 C665.563,642.289 665.563,642.286 665.563,642.283 C665.563,638.705 667.188,635.25 670.139,632.554 C674.999,628.114 677.787,621.798 677.787,615.227 C677.787,608.18 674.665,601.565 669.221,597.079 z M650.027,619.906 L648.179,619.906 C647.16,619.906 646.331,619.076 646.331,618.057 C646.331,617.038 647.16,616.209 648.179,616.209 C649.198,616.209 650.027,617.038 650.027,618.057 L650.027,619.906 z M658.534,618.057 C658.534,617.038 659.363,616.209 660.383,616.209 C661.402,616.209 662.231,617.038 662.231,618.057 C662.231,619.076 661.402,619.906 660.383,619.906 L658.536,619.906 L658.534,618.057 z M657.81,643.4 L663.158,643.4 L663.158,653.34 L662.057,653.34 C662.055,653.34 662.052,653.339 662.049,653.339 C662.046,653.339 662.044,653.34 662.041,653.34 L646.519,653.34 C646.517,653.34 646.514,653.339 646.511,653.339 C646.508,653.339 646.506,653.34 646.503,653.34 L645.403,653.34 L645.403,643.4 L656.922,643.4 M652.433,640.995 L652.433,622.311 L656.135,622.311 L656.162,640.995 L652.433,640.995 z M657.01,659.511 L651.55,659.511 C649.755,659.511 648.249,657.904 647.832,655.745 L660.728,655.745 C660.311,657.904 658.805,659.511 657.01,659.511 z M668.517,630.779 C665.412,633.615 663.574,637.204 663.23,640.995 L658.567,640.995 L658.54,622.311 L660.383,622.311 C662.728,622.311 664.636,620.403 664.636,618.057 C664.636,615.712 662.728,613.804 660.383,613.804 C658.037,613.804 656.128,615.712 656.128,618.059 L656.131,619.906 L652.433,619.906 L652.433,618.057 C652.433,615.712 650.524,613.804 648.179,613.804 C645.833,613.804 643.925,615.712 643.925,618.057 C643.925,620.403 645.833,622.311 648.179,622.311 L650.027,622.311 L650.027,640.995 L645.239,640.995 C644.729,636.981 642.942,633.405 640.112,630.843 C634.878,626.101 632.375,619.06 633.417,612.006 C634.693,603.378 641.522,596.197 650.025,594.541 C656.366,593.308 662.804,594.908 667.689,598.935 C672.577,602.963 675.38,608.901 675.38,615.228 C675.382,621.124 672.879,626.793 668.517,630.779 z" fill="#000000" id="iconfinder_Tilda_Icons_1ed_lightbulb_14_3586363"/>
    </g>
    <g>
      <g>
        <path d="M499.352,113.539 L499.352,238.892 L374,238.892 L374,113.539 L499.352,113.539 z" clip-path="url(#Clip_25)" filter="url(#Shadow_26)" fill="rgba(0,0,0,0.75)"/>
        <path d="M374,113.539 L499.352,113.539 L499.352,238.892 L374,238.892 L374,113.539 z" fill="#FFDA00"/>
      </g>
      <path d="M452.064,146.932 C446.621,142.446 439.456,140.661 432.41,142.033 C422.923,143.88 415.304,151.888 413.882,161.507 C412.721,169.357 415.51,177.197 421.342,182.479 C423.97,184.859 425.555,188.287 425.807,192.133 C425.811,192.202 425.825,192.27 425.84,192.336 L425.84,204.395 C425.84,205.059 426.378,205.598 427.043,205.598 L428.242,205.598 C428.73,209.093 431.299,211.77 434.393,211.77 L439.854,211.77 C442.948,211.77 445.516,209.093 446.005,205.598 L447.204,205.598 C447.867,205.598 448.406,205.059 448.406,204.395 L448.406,192.144 C448.406,192.142 448.407,192.139 448.407,192.136 C448.407,188.558 450.032,185.103 452.982,182.407 C457.843,177.967 460.63,171.651 460.63,165.08 C460.631,158.033 457.509,151.418 452.064,146.932 z M432.871,169.758 L431.022,169.758 C430.003,169.758 429.174,168.929 429.174,167.91 C429.174,166.891 430.003,166.062 431.022,166.062 C432.042,166.062 432.871,166.891 432.871,167.91 L432.871,169.758 z M441.377,167.91 C441.377,166.891 442.206,166.062 443.226,166.062 C444.246,166.062 445.075,166.891 445.075,167.91 C445.075,168.929 444.246,169.758 443.226,169.758 L441.38,169.758 L441.377,167.91 z M440.653,193.253 L446.002,193.253 L446.002,203.192 L444.901,203.192 C444.898,203.192 444.896,203.192 444.893,203.192 C444.889,203.192 444.888,203.192 444.885,203.192 L429.363,203.192 C429.36,203.192 429.358,203.192 429.355,203.192 C429.351,203.192 429.35,203.192 429.347,203.192 L428.247,203.192 L428.247,193.253 L439.766,193.253 M435.276,190.847 L435.276,172.164 L438.978,172.164 L439.006,190.847 L435.276,190.847 z M439.854,209.364 L434.393,209.364 C432.599,209.364 431.092,207.757 430.675,205.598 L443.571,205.598 C443.155,207.757 441.648,209.364 439.854,209.364 z M451.36,180.632 C448.256,183.468 446.418,187.057 446.074,190.847 L441.41,190.847 L441.384,172.164 L443.226,172.164 C445.572,172.164 447.48,170.255 447.48,167.91 C447.48,165.565 445.572,163.656 443.226,163.656 C440.88,163.656 438.972,165.565 438.972,167.912 L438.974,169.758 L435.276,169.758 L435.276,167.91 C435.276,165.565 433.368,163.656 431.022,163.656 C428.677,163.656 426.769,165.565 426.769,167.91 C426.769,170.255 428.677,172.164 431.022,172.164 L432.871,172.164 L432.871,190.847 L428.082,190.847 C427.572,186.834 425.786,183.258 422.956,180.696 C417.722,175.954 415.218,168.912 416.261,161.859 C417.536,153.231 424.366,146.05 432.868,144.394 C439.209,143.161 445.648,144.761 450.533,148.788 C455.421,152.816 458.224,158.754 458.224,165.08 C458.226,170.977 455.723,176.646 451.36,180.632 z" fill="#000000" id="iconfinder_Tilda_Icons_1ed_lightbulb_14_3586363"/>
    </g>
    <g>
      <g>
        <path d="M809.253,25.319 L809.253,150.672 L683.9,150.672 L683.9,25.319 L809.253,25.319 z" clip-path="url(#Clip_27)" filter="url(#Shadow_28)" fill="rgba(0,0,0,0.75)"/>
        <path d="M683.9,25.319 L809.253,25.319 L809.253,150.672 L683.9,150.672 L683.9,25.319 z" fill="#FFDA00"/>
      </g>
      <path d="M761.964,58.712 C756.522,54.226 749.356,52.442 742.31,53.814 C732.823,55.66 725.204,63.668 723.782,73.288 C722.622,81.138 725.41,88.977 731.242,94.26 C733.87,96.639 735.455,100.067 735.707,103.913 C735.712,103.983 735.725,104.05 735.74,104.117 L735.74,116.175 C735.74,116.839 736.278,117.378 736.943,117.378 L738.142,117.378 C738.63,120.873 741.199,123.55 744.294,123.55 L749.754,123.55 C752.848,123.55 755.417,120.873 755.905,117.378 L757.104,117.378 C757.768,117.378 758.306,116.839 758.306,116.175 L758.306,103.924 C758.306,103.922 758.307,103.919 758.307,103.916 C758.307,100.338 759.932,96.883 762.883,94.187 C767.743,89.747 770.53,83.431 770.53,76.86 C770.531,69.813 767.409,63.198 761.964,58.712 z M742.771,81.539 L740.923,81.539 C739.904,81.539 739.074,80.709 739.074,79.69 C739.074,78.671 739.904,77.842 740.923,77.842 C741.942,77.842 742.771,78.671 742.771,79.69 L742.771,81.539 z M751.278,79.69 C751.278,78.671 752.107,77.842 753.127,77.842 C754.146,77.842 754.975,78.671 754.975,79.69 C754.975,80.709 754.146,81.539 753.127,81.539 L751.28,81.539 L751.278,79.69 z M750.554,105.033 L755.902,105.033 L755.902,114.973 L754.801,114.973 C754.798,114.973 754.796,114.972 754.793,114.972 C754.79,114.972 754.788,114.973 754.785,114.973 L739.263,114.973 C739.26,114.973 739.258,114.972 739.255,114.972 C739.252,114.972 739.25,114.973 739.247,114.973 L738.147,114.973 L738.147,105.033 L749.666,105.033 M745.176,102.628 L745.176,83.944 L748.878,83.944 L748.906,102.628 L745.176,102.628 z M749.754,121.144 L744.294,121.144 C742.499,121.144 740.992,119.537 740.576,117.378 L753.471,117.378 C753.055,119.537 751.549,121.144 749.754,121.144 z M761.26,92.412 C758.156,95.248 756.318,98.837 755.974,102.628 L751.31,102.628 L751.284,83.944 L753.127,83.944 C755.472,83.944 757.38,82.036 757.38,79.69 C757.38,77.345 755.472,75.437 753.127,75.437 C750.78,75.437 748.872,77.345 748.872,79.692 L748.874,81.539 L745.176,81.539 L745.176,79.69 C745.176,77.345 743.268,75.437 740.923,75.437 C738.577,75.437 736.669,77.345 736.669,79.69 C736.669,82.036 738.577,83.944 740.923,83.944 L742.771,83.944 L742.771,102.628 L737.982,102.628 C737.472,98.614 735.686,95.038 732.856,92.476 C727.622,87.734 725.119,80.693 726.161,73.639 C727.437,65.011 734.266,57.83 742.768,56.174 C749.109,54.941 755.548,56.541 760.433,60.568 C765.321,64.596 768.124,70.534 768.124,76.861 C768.126,82.757 765.623,88.426 761.26,92.412 z" fill="#000000" id="iconfinder_Tilda_Icons_1ed_lightbulb_14_3586363"/>
    </g>
    <g>
      <g>
        <path d="M408.871,437.012 L408.871,562.364 L283.518,562.364 L283.518,437.012 L408.871,437.012 z" clip-path="url(#Clip_29)" filter="url(#Shadow_30)" fill="rgba(0,0,0,0.75)"/>
        <path d="M283.518,437.012 L408.871,437.012 L408.871,562.364 L283.518,562.364 L283.518,437.012 z" fill="#FFDA00"/>
      </g>
      <path d="M361.582,470.404 C356.14,465.919 348.974,464.134 341.928,465.506 C332.441,467.353 324.822,475.36 323.4,484.98 C322.24,492.83 325.028,500.67 330.86,505.952 C333.488,508.332 335.073,511.76 335.325,515.605 C335.33,515.675 335.343,515.742 335.358,515.809 L335.358,527.868 C335.358,528.532 335.896,529.071 336.561,529.071 L337.76,529.071 C338.248,532.566 340.817,535.242 343.912,535.242 L349.372,535.242 C352.466,535.242 355.035,532.566 355.523,529.071 L356.722,529.071 C357.386,529.071 357.924,528.532 357.924,527.868 L357.924,515.617 C357.924,515.614 357.925,515.612 357.925,515.609 C357.925,512.031 359.55,508.576 362.501,505.88 C367.361,501.439 370.148,495.123 370.148,488.552 C370.149,481.506 367.027,474.891 361.582,470.404 z M342.389,493.231 L340.541,493.231 C339.522,493.231 338.692,492.402 338.692,491.383 C338.692,490.364 339.522,489.534 340.541,489.534 C341.56,489.534 342.389,490.364 342.389,491.383 L342.389,493.231 z M350.896,491.383 C350.896,490.364 351.725,489.534 352.745,489.534 C353.764,489.534 354.593,490.364 354.593,491.383 C354.593,492.402 353.764,493.231 352.745,493.231 L350.898,493.231 L350.896,491.383 z M350.172,516.726 L355.52,516.726 L355.52,526.665 L354.419,526.665 C354.416,526.665 354.414,526.664 354.411,526.664 C354.408,526.664 354.406,526.665 354.403,526.665 L338.881,526.665 C338.878,526.665 338.876,526.664 338.873,526.664 C338.87,526.664 338.868,526.665 338.865,526.665 L337.765,526.665 L337.765,516.726 L349.284,516.726 M344.794,514.32 L344.794,495.636 L348.496,495.636 L348.524,514.32 L344.794,514.32 z M349.372,532.837 L343.912,532.837 C342.117,532.837 340.61,531.23 340.193,529.071 L353.089,529.071 C352.673,531.23 351.167,532.837 349.372,532.837 z M360.878,504.105 C357.774,506.941 355.936,510.53 355.592,514.32 L350.928,514.32 L350.902,495.636 L352.745,495.636 C355.09,495.636 356.998,493.728 356.998,491.383 C356.998,489.037 355.09,487.129 352.745,487.129 C350.398,487.129 348.49,489.037 348.49,491.384 L348.492,493.231 L344.794,493.231 L344.794,491.383 C344.794,489.037 342.886,487.129 340.541,487.129 C338.195,487.129 336.287,489.037 336.287,491.383 C336.287,493.728 338.195,495.636 340.541,495.636 L342.389,495.636 L342.389,514.32 L337.6,514.32 C337.09,510.307 335.304,506.731 332.474,504.169 C327.24,499.427 324.737,492.385 325.779,485.331 C327.055,476.704 333.884,469.522 342.386,467.867 C348.727,466.633 355.166,468.234 360.051,472.261 C364.939,476.288 367.742,482.227 367.742,488.553 C367.744,494.45 365.241,500.119 360.878,504.105 z" fill="#000000" id="iconfinder_Tilda_Icons_1ed_lightbulb_14_3586363"/>
    </g>
    <g>
      <g>
        <path d="M922.355,581.783 L922.355,707.135 L797.003,707.135 L797.003,581.783 L922.355,581.783 z" clip-path="url(#Clip_31)" filter="url(#Shadow_32)" fill="rgba(0,0,0,0.75)"/>
        <path d="M797.003,581.783 L922.355,581.783 L922.355,707.135 L797.003,707.135 L797.003,581.783 z" fill="#FFDA00"/>
      </g>
      <path d="M875.067,615.175 C869.624,610.69 862.459,608.905 855.412,610.277 C845.926,612.123 838.307,620.131 836.884,629.751 C835.724,637.601 838.513,645.44 844.345,650.723 C846.972,653.103 848.557,656.531 848.809,660.376 C848.814,660.446 848.828,660.513 848.843,660.58 L848.843,672.639 C848.843,673.303 849.381,673.841 850.046,673.841 L851.244,673.841 C851.733,677.337 854.302,680.013 857.396,680.013 L862.857,680.013 C865.951,680.013 868.519,677.337 869.007,673.841 L870.206,673.841 C870.87,673.841 871.409,673.303 871.409,672.639 L871.409,660.387 C871.409,660.385 871.41,660.383 871.41,660.379 C871.41,656.802 873.034,653.346 875.985,650.651 C880.846,646.21 883.633,639.894 883.633,633.323 C883.634,626.277 880.511,619.661 875.067,615.175 z M855.873,638.002 L854.025,638.002 C853.006,638.002 852.177,637.173 852.177,636.154 C852.177,635.134 853.006,634.305 854.025,634.305 C855.044,634.305 855.873,635.134 855.873,636.154 L855.873,638.002 z M864.38,636.154 C864.38,635.134 865.209,634.305 866.229,634.305 C867.248,634.305 868.077,635.134 868.077,636.154 C868.077,637.173 867.248,638.002 866.229,638.002 L864.382,638.002 L864.38,636.154 z M863.656,661.496 L869.004,661.496 L869.004,671.436 L867.903,671.436 C867.901,671.436 867.898,671.435 867.895,671.435 C867.892,671.435 867.89,671.436 867.887,671.436 L852.365,671.436 C852.363,671.436 852.36,671.435 852.357,671.435 C852.354,671.435 852.352,671.436 852.349,671.436 L851.249,671.436 L851.249,661.496 L862.768,661.496 M858.279,659.091 L858.279,640.407 L861.981,640.407 L862.008,659.091 L858.279,659.091 z M862.857,677.608 L857.396,677.608 C855.602,677.608 854.095,676.001 853.678,673.841 L866.574,673.841 C866.158,676.001 864.651,677.608 862.857,677.608 z M874.363,648.875 C871.258,651.712 869.42,655.301 869.076,659.091 L864.413,659.091 L864.386,640.407 L866.229,640.407 C868.574,640.407 870.483,638.499 870.483,636.154 C870.483,633.808 868.574,631.9 866.229,631.9 C863.883,631.9 861.974,633.808 861.974,636.155 L861.977,638.002 L858.279,638.002 L858.279,636.154 C858.279,633.808 856.37,631.9 854.025,631.9 C851.68,631.9 849.771,633.808 849.771,636.154 C849.771,638.499 851.68,640.407 854.025,640.407 L855.873,640.407 L855.873,659.091 L851.085,659.091 C850.575,655.078 848.788,651.502 845.959,648.94 C840.724,644.198 838.221,637.156 839.263,630.102 C840.539,621.474 847.368,614.293 855.871,612.637 C862.212,611.404 868.651,613.005 873.535,617.031 C878.423,621.059 881.227,626.997 881.227,633.324 C881.228,639.221 878.726,644.89 874.363,648.875 z" fill="#000000" id="iconfinder_Tilda_Icons_1ed_lightbulb_14_3586363"/>
    </g>
    <g>
      <g>
        <path d="M856.756,380.461 L856.756,505.813 L731.403,505.813 L731.403,380.461 L856.756,380.461 z" clip-path="url(#Clip_33)" filter="url(#Shadow_34)" fill="rgba(0,0,0,0.75)"/>
        <path d="M731.403,380.461 L856.756,380.461 L856.756,505.813 L731.403,505.813 L731.403,380.461 z" fill="#FFDA00"/>
      </g>
      <path d="M809.468,413.853 C804.025,409.368 796.859,407.583 789.813,408.955 C780.326,410.801 772.707,418.809 771.285,428.429 C770.125,436.279 772.914,444.118 778.745,449.401 C781.373,451.781 782.958,455.209 783.21,459.054 C783.215,459.124 783.228,459.191 783.244,459.258 L783.244,471.317 C783.244,471.981 783.782,472.519 784.446,472.519 L785.645,472.519 C786.133,476.015 788.702,478.691 791.797,478.691 L797.257,478.691 C800.352,478.691 802.92,476.015 803.408,472.519 L804.607,472.519 C805.271,472.519 805.81,471.981 805.81,471.317 L805.81,459.065 C805.81,459.063 805.81,459.061 805.81,459.057 C805.81,455.48 807.435,452.025 810.386,449.329 C815.246,444.888 818.034,438.572 818.034,432.001 C818.034,424.955 814.912,418.339 809.468,413.853 z M790.274,436.68 L788.426,436.68 C787.407,436.68 786.578,435.851 786.578,434.832 C786.578,433.812 787.407,432.983 788.426,432.983 C789.445,432.983 790.274,433.812 790.274,434.832 L790.274,436.68 z M798.781,434.832 C798.781,433.812 799.61,432.983 800.63,432.983 C801.649,432.983 802.478,433.812 802.478,434.832 C802.478,435.851 801.649,436.68 800.63,436.68 L798.783,436.68 L798.781,434.832 z M798.057,460.174 L803.405,460.174 L803.405,470.114 L802.304,470.114 C802.302,470.114 802.299,470.113 802.296,470.113 C802.293,470.113 802.291,470.114 802.288,470.114 L786.766,470.114 C786.764,470.114 786.761,470.113 786.758,470.113 C786.755,470.113 786.753,470.114 786.75,470.114 L785.65,470.114 L785.65,460.174 L797.169,460.174 M792.68,457.769 L792.68,439.085 L796.382,439.085 L796.409,457.769 L792.68,457.769 z M797.257,476.286 L791.797,476.286 C790.002,476.286 788.496,474.679 788.079,472.519 L800.974,472.519 C800.558,474.679 799.052,476.286 797.257,476.286 z M808.764,447.553 C805.659,450.39 803.821,453.979 803.477,457.769 L798.814,457.769 L798.787,439.085 L800.63,439.085 C802.975,439.085 804.883,437.177 804.883,434.832 C804.883,432.486 802.975,430.578 800.63,430.578 C798.284,430.578 796.375,432.486 796.375,434.833 L796.378,436.68 L792.68,436.68 L792.68,434.832 C792.68,432.486 790.771,430.578 788.426,430.578 C786.08,430.578 784.172,432.486 784.172,434.832 C784.172,437.177 786.08,439.085 788.426,439.085 L790.274,439.085 L790.274,457.769 L785.485,457.769 C784.976,453.756 783.189,450.179 780.359,447.618 C775.125,442.876 772.622,435.834 773.664,428.78 C774.94,420.152 781.769,412.971 790.272,411.315 C796.613,410.082 803.051,411.683 807.936,415.709 C812.824,419.737 815.627,425.675 815.627,432.002 C815.629,437.899 813.126,443.568 808.764,447.553 z" fill="#000000" id="iconfinder_Tilda_Icons_1ed_lightbulb_14_3586363"/>
    </g>
    <g>
      <g>
        <path d="M630.551,466.418 L630.551,591.771 L505.199,591.771 L505.199,466.418 L630.551,466.418 z" clip-path="url(#Clip_35)" filter="url(#Shadow_36)" fill="rgba(0,0,0,0.75)"/>
        <path d="M505.199,466.418 L630.551,466.418 L630.551,591.771 L505.199,591.771 L505.199,466.418 z" fill="#FFDA00"/>
      </g>
      <path d="M583.263,499.811 C577.82,495.325 570.655,493.541 563.608,494.913 C554.122,496.759 546.503,504.767 545.08,514.387 C543.92,522.237 546.709,530.076 552.541,535.359 C555.168,537.739 556.753,541.166 557.005,545.012 C557.01,545.082 557.024,545.149 557.039,545.216 L557.039,557.274 C557.039,557.938 557.577,558.477 558.242,558.477 L559.44,558.477 C559.929,561.972 562.498,564.649 565.592,564.649 L571.053,564.649 C574.147,564.649 576.715,561.972 577.203,558.477 L578.402,558.477 C579.066,558.477 579.605,557.938 579.605,557.274 L579.605,545.023 C579.605,545.021 579.606,545.018 579.606,545.015 C579.606,541.437 581.23,537.982 584.181,535.286 C589.042,530.846 591.829,524.53 591.829,517.959 C591.83,510.912 588.707,504.297 583.263,499.811 z M564.069,522.638 L562.221,522.638 C561.202,522.638 560.373,521.808 560.373,520.789 C560.373,519.77 561.202,518.941 562.221,518.941 C563.24,518.941 564.069,519.77 564.069,520.789 L564.069,522.638 z M572.576,520.789 C572.576,519.77 573.405,518.941 574.425,518.941 C575.444,518.941 576.273,519.77 576.273,520.789 C576.273,521.808 575.444,522.638 574.425,522.638 L572.578,522.638 L572.576,520.789 z M571.852,546.132 L577.2,546.132 L577.2,556.072 L576.099,556.072 C576.097,556.072 576.094,556.071 576.091,556.071 C576.088,556.071 576.086,556.072 576.083,556.072 L560.561,556.072 C560.559,556.072 560.557,556.071 560.553,556.071 C560.55,556.071 560.549,556.072 560.545,556.072 L559.445,556.072 L559.445,546.132 L570.964,546.132 M566.475,543.727 L566.475,525.043 L570.177,525.043 L570.204,543.727 L566.475,543.727 z M571.053,562.243 L565.592,562.243 C563.798,562.243 562.291,560.636 561.874,558.477 L574.77,558.477 C574.354,560.636 572.847,562.243 571.053,562.243 z M582.559,533.511 C579.454,536.347 577.616,539.936 577.272,543.727 L572.609,543.727 L572.582,525.043 L574.425,525.043 C576.77,525.043 578.679,523.135 578.679,520.789 C578.679,518.444 576.77,516.536 574.425,516.536 C572.079,516.536 570.171,518.444 570.171,520.791 L570.173,522.638 L566.475,522.638 L566.475,520.789 C566.475,518.444 564.567,516.536 562.221,516.536 C559.876,516.536 557.967,518.444 557.967,520.789 C557.967,523.135 559.876,525.043 562.221,525.043 L564.069,525.043 L564.069,543.727 L559.281,543.727 C558.771,539.713 556.984,536.137 554.155,533.575 C548.92,528.833 546.417,521.792 547.459,514.738 C548.735,506.11 555.564,498.929 564.067,497.273 C570.408,496.04 576.847,497.64 581.731,501.667 C586.619,505.695 589.423,511.633 589.423,517.96 C589.424,523.856 586.922,529.525 582.559,533.511 z" fill="#000000" id="iconfinder_Tilda_Icons_1ed_lightbulb_14_3586363"/>
    </g>
    <g>
      <g>
        <path d="M232.431,493.563 L232.431,618.915 L107.078,618.915 L107.078,493.563 L232.431,493.563 z" clip-path="url(#Clip_37)" filter="url(#Shadow_38)" fill="rgba(0,0,0,0.75)"/>
        <path d="M107.079,493.563 L232.431,493.563 L232.431,618.915 L107.079,618.915 L107.079,493.563 z" fill="#FFDA00"/>
      </g>
      <path d="M185.143,526.955 C179.7,522.47 172.535,520.685 165.488,522.057 C156.002,523.904 148.383,531.912 146.96,541.531 C145.8,549.381 148.589,557.221 154.421,562.503 C157.048,564.883 158.633,568.311 158.885,572.156 C158.89,572.226 158.904,572.294 158.919,572.36 L158.919,584.419 C158.919,585.083 159.457,585.622 160.122,585.622 L161.32,585.622 C161.809,589.117 164.378,591.793 167.472,591.793 L172.932,591.793 C176.027,591.793 178.595,589.117 179.083,585.622 L180.282,585.622 C180.946,585.622 181.485,585.083 181.485,584.419 L181.485,572.168 C181.485,572.165 181.486,572.163 181.486,572.16 C181.486,568.582 183.11,565.127 186.061,562.431 C190.922,557.99 193.709,551.674 193.709,545.103 C193.71,538.057 190.587,531.442 185.143,526.955 z M165.949,549.782 L164.101,549.782 C163.082,549.782 162.253,548.953 162.253,547.934 C162.253,546.915 163.082,546.086 164.101,546.086 C165.12,546.086 165.949,546.915 165.949,547.934 L165.949,549.782 z M174.456,547.934 C174.456,546.915 175.285,546.086 176.305,546.086 C177.324,546.086 178.153,546.915 178.153,547.934 C178.153,548.953 177.324,549.782 176.305,549.782 L174.458,549.782 L174.456,547.934 z M173.732,573.277 L179.08,573.277 L179.08,583.216 L177.979,583.216 C177.977,583.216 177.974,583.215 177.971,583.215 C177.968,583.215 177.966,583.216 177.963,583.216 L162.441,583.216 C162.439,583.216 162.436,583.215 162.433,583.215 C162.43,583.215 162.428,583.216 162.425,583.216 L161.325,583.216 L161.325,573.277 L172.844,573.277 M168.355,570.871 L168.355,552.188 L172.057,552.188 L172.084,570.871 L168.355,570.871 z M172.932,589.388 L167.472,589.388 C165.677,589.388 164.171,587.781 163.754,585.622 L176.65,585.622 C176.234,587.781 174.727,589.388 172.932,589.388 z M184.439,560.656 C181.334,563.492 179.496,567.081 179.152,570.871 L174.489,570.871 L174.462,552.188 L176.305,552.188 C178.65,552.188 180.559,550.279 180.559,547.934 C180.559,545.589 178.65,543.68 176.305,543.68 C173.959,543.68 172.05,545.589 172.05,547.935 L172.053,549.782 L168.355,549.782 L168.355,547.934 C168.355,545.589 166.446,543.68 164.101,543.68 C161.756,543.68 159.847,545.589 159.847,547.934 C159.847,550.279 161.756,552.188 164.101,552.188 L165.949,552.188 L165.949,570.871 L161.161,570.871 C160.651,566.858 158.864,563.282 156.035,560.72 C150.8,555.978 148.297,548.936 149.339,541.882 C150.615,533.255 157.444,526.073 165.947,524.418 C172.288,523.184 178.727,524.785 183.611,528.812 C188.499,532.839 191.302,538.778 191.302,545.104 C191.304,551.001 188.802,556.67 184.439,560.656 z" fill="#000000" id="iconfinder_Tilda_Icons_1ed_lightbulb_14_3586363"/>
    </g>
    <g>
      <g>
        <path d="M363.63,4.961 L363.63,130.314 L238.277,130.314 L238.277,4.961 L363.63,4.961 z" clip-path="url(#Clip_39)" filter="url(#Shadow_40)" fill="rgba(0,0,0,0.75)"/>
        <path d="M238.277,4.961 L363.63,4.961 L363.63,130.314 L238.277,130.314 L238.277,4.961 z" fill="#FFDA00"/>
      </g>
      <path d="M316.341,38.353 C310.899,33.868 303.733,32.083 296.687,33.455 C287.2,35.302 279.581,43.31 278.159,52.929 C276.999,60.779 279.787,68.619 285.619,73.901 C288.247,76.281 289.832,79.709 290.084,83.555 C290.089,83.624 290.102,83.692 290.117,83.758 L290.117,95.817 C290.117,96.481 290.655,97.02 291.32,97.02 L292.519,97.02 C293.007,100.515 295.576,103.191 298.671,103.191 L304.131,103.191 C307.225,103.191 309.794,100.515 310.282,97.02 L311.481,97.02 C312.145,97.02 312.684,96.481 312.684,95.817 L312.684,83.566 C312.684,83.563 312.684,83.561 312.684,83.558 C312.684,79.98 314.309,76.525 317.26,73.829 C322.12,69.389 324.907,63.072 324.907,56.501 C324.908,49.455 321.786,42.84 316.341,38.353 z M297.148,61.18 L295.3,61.18 C294.281,61.18 293.452,60.351 293.452,59.332 C293.452,58.313 294.281,57.484 295.3,57.484 C296.319,57.484 297.148,58.313 297.148,59.332 L297.148,61.18 z M305.655,59.332 C305.655,58.313 306.484,57.484 307.504,57.484 C308.523,57.484 309.352,58.313 309.352,59.332 C309.352,60.351 308.523,61.18 307.504,61.18 L305.657,61.18 L305.655,59.332 z M304.931,84.675 L310.279,84.675 L310.279,94.614 L309.178,94.614 C309.175,94.614 309.173,94.613 309.17,94.613 C309.167,94.613 309.165,94.614 309.162,94.614 L293.64,94.614 C293.638,94.614 293.635,94.613 293.632,94.613 C293.629,94.613 293.627,94.614 293.624,94.614 L292.524,94.614 L292.524,84.675 L304.043,84.675 M299.553,82.269 L299.553,63.586 L303.256,63.586 L303.283,82.269 L299.553,82.269 z M304.131,100.786 L298.671,100.786 C296.876,100.786 295.369,99.179 294.953,97.02 L307.848,97.02 C307.432,99.179 305.926,100.786 304.131,100.786 z M315.637,72.054 C312.533,74.89 310.695,78.479 310.351,82.269 L305.688,82.269 L305.661,63.586 L307.504,63.586 C309.849,63.586 311.757,61.677 311.757,59.332 C311.757,56.987 309.849,55.078 307.504,55.078 C305.157,55.078 303.249,56.987 303.249,59.333 L303.252,61.18 L299.553,61.18 L299.553,59.332 C299.553,56.987 297.645,55.078 295.3,55.078 C292.954,55.078 291.046,56.987 291.046,59.332 C291.046,61.677 292.954,63.586 295.3,63.586 L297.148,63.586 L297.148,82.269 L292.359,82.269 C291.849,78.256 290.063,74.68 287.233,72.118 C281.999,67.376 279.496,60.334 280.538,53.28 C281.814,44.653 288.643,37.471 297.146,35.816 C303.486,34.582 309.925,36.183 314.81,40.21 C319.698,44.237 322.501,50.176 322.501,56.502 C322.503,62.399 320,68.068 315.637,72.054 z" fill="#000000" id="iconfinder_Tilda_Icons_1ed_lightbulb_14_3586363"/>
    </g>
    <g>
      <g>
        <path d="M976.644,36.63 L976.644,161.982 L851.292,161.982 L851.292,36.63 L976.644,36.63 z" clip-path="url(#Clip_41)" filter="url(#Shadow_42)" fill="rgba(0,0,0,0.75)"/>
        <path d="M851.292,36.63 L976.644,36.63 L976.644,161.982 L851.292,161.982 L851.292,36.63 z" fill="#FFDA00"/>
      </g>
      <path d="M929.356,70.022 C923.913,65.537 916.748,63.752 909.701,65.124 C900.215,66.97 892.596,74.978 891.173,84.598 C890.013,92.448 892.802,100.287 898.634,105.57 C901.261,107.95 902.846,111.378 903.098,115.223 C903.103,115.293 903.117,115.36 903.132,115.427 L903.132,127.486 C903.132,128.15 903.67,128.688 904.335,128.688 L905.533,128.688 C906.022,132.184 908.591,134.86 911.685,134.86 L917.146,134.86 C920.24,134.86 922.808,132.184 923.297,128.688 L924.495,128.688 C925.159,128.688 925.698,128.15 925.698,127.486 L925.698,115.234 C925.698,115.232 925.699,115.23 925.699,115.226 C925.699,111.649 927.323,108.193 930.274,105.498 C935.135,101.057 937.922,94.741 937.922,88.17 C937.923,81.124 934.8,74.508 929.356,70.022 z M910.162,92.849 L908.314,92.849 C907.295,92.849 906.466,92.02 906.466,91.001 C906.466,89.981 907.295,89.152 908.314,89.152 C909.333,89.152 910.162,89.981 910.162,91.001 L910.162,92.849 z M918.669,91.001 C918.669,89.981 919.498,89.152 920.518,89.152 C921.537,89.152 922.366,89.981 922.366,91.001 C922.366,92.02 921.537,92.849 920.518,92.849 L918.672,92.849 L918.669,91.001 z M917.945,116.343 L923.293,116.343 L923.293,126.283 L922.192,126.283 C922.19,126.283 922.188,126.282 922.184,126.282 C922.181,126.282 922.18,126.283 922.176,126.283 L906.654,126.283 C906.652,126.283 906.65,126.282 906.646,126.282 C906.643,126.282 906.642,126.283 906.638,126.283 L905.538,126.283 L905.538,116.343 L917.057,116.343 M912.568,113.938 L912.568,95.254 L916.27,95.254 L916.297,113.938 L912.568,113.938 z M917.146,132.455 L911.685,132.455 C909.891,132.455 908.384,130.848 907.967,128.688 L920.863,128.688 C920.447,130.848 918.94,132.455 917.146,132.455 z M928.652,103.722 C925.547,106.559 923.709,110.148 923.365,113.938 L918.702,113.938 L918.676,95.254 L920.518,95.254 C922.864,95.254 924.772,93.346 924.772,91.001 C924.772,88.655 922.864,86.747 920.518,86.747 C918.172,86.747 916.264,88.655 916.264,91.002 L916.266,92.849 L912.568,92.849 L912.568,91.001 C912.568,88.655 910.66,86.747 908.314,86.747 C905.969,86.747 904.06,88.655 904.06,91.001 C904.06,93.346 905.969,95.254 908.314,95.254 L910.162,95.254 L910.162,113.938 L905.374,113.938 C904.864,109.925 903.077,106.348 900.248,103.787 C895.013,99.045 892.51,92.003 893.552,84.949 C894.828,76.321 901.657,69.14 910.16,67.484 C916.501,66.251 922.94,67.852 927.824,71.878 C932.712,75.906 935.516,81.844 935.516,88.171 C935.517,94.068 933.015,99.737 928.652,103.722 z" fill="#000000" id="iconfinder_Tilda_Icons_1ed_lightbulb_14_3586363"/>
    </g>
    <g>
      <g>
        <path d="M598.882,206.283 L598.882,331.636 L473.53,331.636 L473.53,206.283 L598.882,206.283 z" clip-path="url(#Clip_43)" filter="url(#Shadow_44)" fill="rgba(0,0,0,0.75)"/>
        <path d="M473.53,206.283 L598.882,206.283 L598.882,331.636 L473.53,331.636 L473.53,206.283 z" fill="#FFDA00"/>
      </g>
      <path d="M551.594,239.676 C546.151,235.19 538.986,233.405 531.94,234.777 C522.453,236.624 514.834,244.632 513.412,254.251 C512.251,262.101 515.04,269.941 520.872,275.223 C523.5,277.603 525.085,281.031 525.337,284.877 C525.341,284.946 525.355,285.014 525.37,285.08 L525.37,297.139 C525.37,297.803 525.908,298.342 526.573,298.342 L527.772,298.342 C528.26,301.837 530.829,304.514 533.923,304.514 L539.384,304.514 C542.478,304.514 545.046,301.837 545.535,298.342 L546.734,298.342 C547.397,298.342 547.936,297.803 547.936,297.139 L547.936,284.888 C547.936,284.885 547.937,284.883 547.937,284.88 C547.937,281.302 549.562,277.847 552.512,275.151 C557.373,270.711 560.16,264.395 560.16,257.824 C560.161,250.777 557.039,244.162 551.594,239.676 z M532.401,262.502 L530.552,262.502 C529.533,262.502 528.704,261.673 528.704,260.654 C528.704,259.635 529.533,258.806 530.552,258.806 C531.572,258.806 532.401,259.635 532.401,260.654 L532.401,262.502 z M540.907,260.654 C540.907,259.635 541.737,258.806 542.756,258.806 C543.776,258.806 544.605,259.635 544.605,260.654 C544.605,261.673 543.776,262.502 542.756,262.502 L540.91,262.502 L540.907,260.654 z M540.183,285.997 L545.532,285.997 L545.532,295.936 L544.431,295.936 C544.428,295.936 544.426,295.936 544.423,295.936 C544.419,295.936 544.418,295.936 544.415,295.936 L528.893,295.936 C528.89,295.936 528.888,295.936 528.885,295.936 C528.881,295.936 528.88,295.936 528.877,295.936 L527.777,295.936 L527.777,285.997 L539.296,285.997 M534.806,283.591 L534.806,264.908 L538.508,264.908 L538.536,283.591 L534.806,283.591 z M539.384,302.108 L533.923,302.108 C532.129,302.108 530.622,300.501 530.205,298.342 L543.101,298.342 C542.685,300.501 541.178,302.108 539.384,302.108 z M550.89,273.376 C547.786,276.212 545.948,279.801 545.604,283.591 L540.94,283.591 L540.914,264.908 L542.756,264.908 C545.102,264.908 547.01,262.999 547.01,260.654 C547.01,258.309 545.102,256.4 542.756,256.4 C540.41,256.4 538.502,258.309 538.502,260.656 L538.504,262.502 L534.806,262.502 L534.806,260.654 C534.806,258.309 532.898,256.4 530.552,256.4 C528.207,256.4 526.299,258.309 526.299,260.654 C526.299,262.999 528.207,264.908 530.552,264.908 L532.401,264.908 L532.401,283.591 L527.612,283.591 C527.102,279.578 525.316,276.002 522.486,273.44 C517.252,268.698 514.748,261.656 515.791,254.603 C517.066,245.975 523.896,238.794 532.398,237.138 C538.739,235.905 545.178,237.505 550.063,241.532 C554.951,245.559 557.754,251.498 557.754,257.824 C557.756,263.721 555.253,269.39 550.89,273.376 z" fill="#000000" id="iconfinder_Tilda_Icons_1ed_lightbulb_14_3586363"/>
    </g>
    <g>
      <g>
        <path d="M417.919,604.403 L417.919,729.756 L292.566,729.756 L292.566,604.403 L417.919,604.403 z" clip-path="url(#Clip_45)" filter="url(#Shadow_46)" fill="rgba(0,0,0,0.75)"/>
        <path d="M292.566,604.403 L417.919,604.403 L417.919,729.756 L292.566,729.756 L292.566,604.403 z" fill="#FFDA00"/>
      </g>
      <path d="M370.631,637.796 C365.188,633.31 358.023,631.525 350.976,632.897 C341.49,634.744 333.87,642.752 332.448,652.371 C331.288,660.221 334.077,668.061 339.908,673.343 C342.536,675.723 344.121,679.151 344.373,682.997 C344.378,683.067 344.391,683.134 344.407,683.2 L344.407,695.259 C344.407,695.923 344.945,696.462 345.609,696.462 L346.808,696.462 C347.296,699.957 349.865,702.634 352.96,702.634 L358.42,702.634 C361.515,702.634 364.083,699.957 364.571,696.462 L365.77,696.462 C366.434,696.462 366.973,695.923 366.973,695.259 L366.973,683.008 C366.973,683.006 366.973,683.003 366.973,683 C366.973,679.422 368.598,675.967 371.549,673.271 C376.409,668.831 379.197,662.515 379.197,655.944 C379.197,648.897 376.075,642.282 370.631,637.796 z M351.437,660.622 L349.589,660.622 C348.57,660.622 347.741,659.793 347.741,658.774 C347.741,657.755 348.57,656.926 349.589,656.926 C350.608,656.926 351.437,657.755 351.437,658.774 L351.437,660.622 z M359.944,658.774 C359.944,657.755 360.773,656.926 361.793,656.926 C362.812,656.926 363.641,657.755 363.641,658.774 C363.641,659.793 362.812,660.622 361.793,660.622 L359.946,660.622 L359.944,658.774 z M359.22,684.117 L364.568,684.117 L364.568,694.056 L363.467,694.056 C363.465,694.056 363.462,694.056 363.459,694.056 C363.456,694.056 363.454,694.056 363.451,694.056 L347.929,694.056 C347.927,694.056 347.924,694.056 347.921,694.056 C347.918,694.056 347.916,694.056 347.913,694.056 L346.813,694.056 L346.813,684.117 L358.332,684.117 M353.843,681.711 L353.843,663.028 L357.545,663.028 L357.572,681.711 L353.843,681.711 z M358.42,700.228 L352.96,700.228 C351.165,700.228 349.659,698.621 349.242,696.462 L362.138,696.462 C361.721,698.621 360.215,700.228 358.42,700.228 z M369.927,671.496 C366.822,674.332 364.984,677.921 364.64,681.711 L359.977,681.711 L359.95,663.028 L361.793,663.028 C364.138,663.028 366.047,661.12 366.047,658.774 C366.047,656.429 364.138,654.52 361.793,654.52 C359.447,654.52 357.538,656.429 357.538,658.776 L357.541,660.622 L353.843,660.622 L353.843,658.774 C353.843,656.429 351.934,654.52 349.589,654.52 C347.243,654.52 345.335,656.429 345.335,658.774 C345.335,661.12 347.243,663.028 349.589,663.028 L351.437,663.028 L351.437,681.711 L346.649,681.711 C346.139,677.698 344.352,674.122 341.522,671.56 C336.288,666.818 333.785,659.776 334.827,652.723 C336.103,644.095 342.932,636.914 351.435,635.258 C357.776,634.025 364.214,635.625 369.099,639.652 C373.987,643.68 376.79,649.618 376.79,655.944 C376.792,661.841 374.289,667.51 369.927,671.496 z" fill="#000000" id="iconfinder_Tilda_Icons_1ed_lightbulb_14_3586363"/>
    </g>
    <g>
      <g>
        <path d="M605.669,622.5 L605.669,747.852 L480.316,747.852 L480.316,622.5 L605.669,622.5 z" clip-path="url(#Clip_47)" filter="url(#Shadow_48)" fill="rgba(0,0,0,0.75)"/>
        <path d="M480.316,622.5 L605.669,622.5 L605.669,747.852 L480.316,747.852 L480.316,622.5 z" fill="#FFDA00"/>
      </g>
      <path d="M558.38,655.892 C552.938,651.407 545.772,649.622 538.726,650.994 C529.239,652.84 521.62,660.848 520.198,670.468 C519.038,678.318 521.826,686.157 527.658,691.44 C530.286,693.82 531.871,697.247 532.123,701.093 C532.128,701.163 532.141,701.23 532.156,701.297 L532.156,713.356 C532.156,714.02 532.694,714.558 533.359,714.558 L534.558,714.558 C535.046,718.054 537.615,720.73 540.71,720.73 L546.17,720.73 C549.264,720.73 551.833,718.054 552.321,714.558 L553.52,714.558 C554.184,714.558 554.722,714.02 554.722,713.356 L554.722,701.104 C554.722,701.102 554.723,701.1 554.723,701.096 C554.723,697.519 556.348,694.063 559.298,691.368 C564.159,686.927 566.946,680.611 566.946,674.04 C566.947,666.994 563.825,660.378 558.38,655.892 z M539.187,678.719 L537.339,678.719 C536.32,678.719 535.49,677.89 535.49,676.87 C535.49,675.851 536.32,675.022 537.339,675.022 C538.358,675.022 539.187,675.851 539.187,676.87 L539.187,678.719 z M547.694,676.87 C547.694,675.851 548.523,675.022 549.543,675.022 C550.562,675.022 551.391,675.851 551.391,676.87 C551.391,677.89 550.562,678.719 549.543,678.719 L547.696,678.719 L547.694,676.87 z M546.969,702.213 L552.318,702.213 L552.318,712.153 L551.217,712.153 C551.214,712.153 551.212,712.152 551.209,712.152 C551.206,712.152 551.204,712.153 551.201,712.153 L535.679,712.153 C535.676,712.153 535.674,712.152 535.671,712.152 C535.668,712.152 535.666,712.153 535.663,712.153 L534.563,712.153 L534.563,702.213 L546.082,702.213 M541.592,699.808 L541.592,681.124 L545.294,681.124 L545.322,699.808 L541.592,699.808 z M546.17,718.325 L540.71,718.325 C538.915,718.325 537.408,716.718 536.991,714.558 L549.887,714.558 C549.471,716.718 547.965,718.325 546.17,718.325 z M557.676,689.592 C554.572,692.429 552.734,696.018 552.39,699.808 L547.726,699.808 L547.7,681.124 L549.543,681.124 C551.888,681.124 553.796,679.216 553.796,676.87 C553.796,674.525 551.888,672.617 549.543,672.617 C547.196,672.617 545.288,674.525 545.288,676.872 L545.29,678.719 L541.592,678.719 L541.592,676.87 C541.592,674.525 539.684,672.617 537.339,672.617 C534.993,672.617 533.085,674.525 533.085,676.87 C533.085,679.216 534.993,681.124 537.339,681.124 L539.187,681.124 L539.187,699.808 L534.398,699.808 C533.888,695.795 532.102,692.218 529.272,689.657 C524.038,684.914 521.534,677.873 522.577,670.819 C523.853,662.191 530.682,655.01 539.184,653.354 C545.525,652.121 551.964,653.722 556.849,657.748 C561.737,661.776 564.54,667.714 564.54,674.041 C564.542,679.938 562.039,685.607 557.676,689.592 z" fill="#000000" id="iconfinder_Tilda_Icons_1ed_lightbulb_14_3586363"/>
    </g>
    <g>
      <g>
        <path d="M768.536,201.759 L768.536,327.112 L643.183,327.112 L643.183,201.759 L768.536,201.759 z" clip-path="url(#Clip_49)" filter="url(#Shadow_50)" fill="rgba(0,0,0,0.75)"/>
        <path d="M643.183,201.759 L768.536,201.759 L768.536,327.112 L643.183,327.112 L643.183,201.759 z" fill="#FFDA00"/>
      </g>
      <path d="M721.248,235.152 C715.805,230.666 708.64,228.881 701.593,230.253 C692.107,232.1 684.488,240.108 683.065,249.727 C681.905,257.577 684.694,265.417 690.525,270.699 C693.153,273.079 694.738,276.507 694.99,280.353 C694.995,280.422 695.008,280.49 695.024,280.556 L695.024,292.615 C695.024,293.279 695.562,293.818 696.226,293.818 L697.425,293.818 C697.914,297.313 700.483,299.989 703.577,299.989 L709.037,299.989 C712.132,299.989 714.7,297.313 715.188,293.818 L716.387,293.818 C717.051,293.818 717.59,293.279 717.59,292.615 L717.59,280.364 C717.59,280.361 717.591,280.359 717.591,280.356 C717.591,276.778 719.215,273.323 722.166,270.627 C727.026,266.187 729.814,259.87 729.814,253.299 C729.815,246.253 726.692,239.638 721.248,235.152 z M702.054,257.978 L700.206,257.978 C699.187,257.978 698.358,257.149 698.358,256.13 C698.358,255.111 699.187,254.282 700.206,254.282 C701.225,254.282 702.054,255.111 702.054,256.13 L702.054,257.978 z M710.561,256.13 C710.561,255.111 711.39,254.282 712.41,254.282 C713.429,254.282 714.258,255.111 714.258,256.13 C714.258,257.149 713.429,257.978 712.41,257.978 L710.563,257.978 L710.561,256.13 z M709.837,281.473 L715.185,281.473 L715.185,291.412 L714.084,291.412 C714.082,291.412 714.079,291.411 714.076,291.411 C714.073,291.411 714.071,291.412 714.068,291.412 L698.546,291.412 C698.544,291.412 698.541,291.411 698.538,291.411 C698.535,291.411 698.533,291.412 698.53,291.412 L697.43,291.412 L697.43,281.473 L708.949,281.473 M704.46,279.067 L704.46,260.384 L708.162,260.384 L708.189,279.067 L704.46,279.067 z M709.037,297.584 L703.577,297.584 C701.782,297.584 700.276,295.977 699.859,293.818 L712.755,293.818 C712.339,295.977 710.832,297.584 709.037,297.584 z M720.544,268.852 C717.439,271.688 715.601,275.277 715.257,279.067 L710.594,279.067 L710.567,260.384 L712.41,260.384 C714.755,260.384 716.664,258.475 716.664,256.13 C716.664,253.785 714.755,251.876 712.41,251.876 C710.064,251.876 708.155,253.785 708.155,256.132 L708.158,257.978 L704.46,257.978 L704.46,256.13 C704.46,253.785 702.551,251.876 700.206,251.876 C697.861,251.876 695.952,253.785 695.952,256.13 C695.952,258.475 697.861,260.384 700.206,260.384 L702.054,260.384 L702.054,279.067 L697.266,279.067 C696.756,275.054 694.969,271.478 692.139,268.916 C686.905,264.174 684.402,257.132 685.444,250.078 C686.72,241.451 693.549,234.269 702.052,232.614 C708.393,231.38 714.831,232.981 719.716,237.008 C724.604,241.035 727.407,246.974 727.407,253.3 C727.409,259.197 724.906,264.866 720.544,268.852 z" fill="#000000" id="iconfinder_Tilda_Icons_1ed_lightbulb_14_3586363"/>
    </g>
    <g>
      <g>
        <path d="M994.74,554.638 L994.74,679.991 L869.388,679.991 L869.388,554.638 L994.74,554.638 z" clip-path="url(#Clip_51)" filter="url(#Shadow_52)" fill="rgba(0,0,0,0.75)"/>
        <path d="M869.388,554.638 L994.741,554.638 L994.741,679.991 L869.388,679.991 L869.388,554.638 z" fill="#FFDA00"/>
      </g>
      <path d="M947.452,588.031 C942.009,583.545 934.844,581.76 927.798,583.132 C918.311,584.979 910.692,592.987 909.27,602.606 C908.109,610.456 910.898,618.296 916.73,623.578 C919.358,625.958 920.943,629.386 921.195,633.232 C921.199,633.302 921.213,633.369 921.228,633.435 L921.228,645.494 C921.228,646.158 921.766,646.697 922.431,646.697 L923.63,646.697 C924.118,650.192 926.687,652.869 929.781,652.869 L935.242,652.869 C938.336,652.869 940.905,650.192 941.393,646.697 L942.592,646.697 C943.256,646.697 943.794,646.158 943.794,645.494 L943.794,633.243 C943.794,633.241 943.795,633.238 943.795,633.235 C943.795,629.657 945.42,626.202 948.37,623.506 C953.231,619.066 956.018,612.75 956.018,606.179 C956.019,599.132 952.897,592.517 947.452,588.031 z M928.259,610.857 L926.411,610.857 C925.391,610.857 924.562,610.028 924.562,609.009 C924.562,607.99 925.391,607.161 926.411,607.161 C927.43,607.161 928.259,607.99 928.259,609.009 L928.259,610.857 z M936.766,609.009 C936.766,607.99 937.595,607.161 938.615,607.161 C939.634,607.161 940.463,607.99 940.463,609.009 C940.463,610.028 939.634,610.857 938.615,610.857 L936.768,610.857 L936.766,609.009 z M936.041,634.352 L941.39,634.352 L941.39,644.291 L940.289,644.291 C940.286,644.291 940.284,644.291 940.281,644.291 C940.278,644.291 940.276,644.291 940.273,644.291 L924.751,644.291 C924.748,644.291 924.746,644.291 924.743,644.291 C924.74,644.291 924.738,644.291 924.735,644.291 L923.635,644.291 L923.635,634.352 L935.154,634.352 M930.664,631.946 L930.664,613.263 L934.366,613.263 L934.394,631.946 L930.664,631.946 z M935.242,650.463 L929.781,650.463 C927.987,650.463 926.48,648.856 926.063,646.697 L938.959,646.697 C938.543,648.856 937.036,650.463 935.242,650.463 z M946.748,621.731 C943.644,624.567 941.806,628.156 941.462,631.946 L936.798,631.946 L936.772,613.263 L938.615,613.263 C940.96,613.263 942.868,611.354 942.868,609.009 C942.868,606.664 940.96,604.755 938.615,604.755 C936.268,604.755 934.36,606.664 934.36,609.011 L934.362,610.857 L930.664,610.857 L930.664,609.009 C930.664,606.664 928.756,604.755 926.411,604.755 C924.065,604.755 922.157,606.664 922.157,609.009 C922.157,611.354 924.065,613.263 926.411,613.263 L928.259,613.263 L928.259,631.946 L923.47,631.946 C922.96,627.933 921.174,624.357 918.344,621.795 C913.11,617.053 910.606,610.011 911.649,602.958 C912.925,594.33 919.754,587.149 928.256,585.493 C934.597,584.26 941.036,585.86 945.921,589.887 C950.809,593.915 953.612,599.853 953.612,606.179 C953.614,612.076 951.111,617.745 946.748,621.731 z" fill="#000000" id="iconfinder_Tilda_Icons_1ed_lightbulb_14_3586363"/>
    </g>
  </g>
</svg>
