<?xml version="1.0" encoding="UTF-8"?>
<!DOCTYPE svg PUBLIC "-//W3C//DTD SVG 1.1//EN" "http://www.w3.org/Graphics/SVG/1.1/DTD/svg11.dtd">
<svg version="1.1" xmlns="http://www.w3.org/2000/svg" xmlns:xlink="http://www.w3.org/1999/xlink" x="0" y="0" width="280" height="70" viewBox="0, 0, 280, 70">
  <defs>
    <clipPath id="Clip_1">
      <path d="M0.709,2.598 L65.355,2.598 L65.355,71.244 L0.709,71.244 z M25.979,10.598 L6.709,43.975 L40.085,63.244 L59.355,29.868 L25.979,10.598 z"/>
    </clipPath>
    <filter id="Shadow_2">
      <feGaussianBlur in="SourceAlpha" stdDeviation="2.5"/>
      <feOffset dx="0" dy="2" result="offsetblur"/>
      <feFlood flood-color="#000000"/>
      <feComposite in2="offsetblur" operator="in"/>
    </filter>
    <clipPath id="Clip_3">
      <path d="M47.371,12.668 L69.346,12.668 L69.346,65.895 L47.371,65.895 z M63.346,20.668 L63.346,20.668 L53.371,57.895 L63.346,20.668 z"/>
    </clipPath>
    <filter id="Shadow_4">
      <feGaussianBlur in="SourceAlpha" stdDeviation="2.5"/>
      <feOffset dx="0" dy="2" result="offsetblur"/>
      <feFlood flood-color="#000000"/>
      <feComposite in2="offsetblur" operator="in"/>
    </filter>
    <clipPath id="Clip_5">
      <path d="M10.145,2.694 L69.346,2.694 L69.346,65.895 L10.145,65.895 z M26.119,10.693 L16.145,47.92 L53.371,57.895 L63.346,20.668 L26.119,10.693 z"/>
    </clipPath>
    <filter id="Shadow_6">
      <feGaussianBlur in="SourceAlpha" stdDeviation="2.5"/>
      <feOffset dx="0" dy="2" result="offsetblur"/>
      <feFlood flood-color="#000000"/>
      <feComposite in2="offsetblur" operator="in"/>
    </filter>
    <clipPath id="Clip_7">
      <path d="M19.211,-0.241 L69.75,-0.241 L69.75,54.299 L19.211,54.299 z M63.75,7.759 L25.211,7.759 L25.211,46.299 L63.75,46.299 L63.75,7.759 z"/>
    </clipPath>
    <filter id="Shadow_8">
      <feGaussianBlur in="SourceAlpha" stdDeviation="2.5"/>
      <feOffset dx="0" dy="2" result="offsetblur"/>
      <feFlood flood-color="#000000"/>
      <feComposite in2="offsetblur" operator="in"/>
    </filter>
    <clipPath id="Clip_9">
      <path d="M19.211,-0.241 L69.75,-0.241 L69.75,54.299 L19.211,54.299 z M63.75,7.759 L25.211,7.759 L25.211,46.299 L63.75,46.299 L63.75,7.759 z"/>
    </clipPath>
    <filter id="Shadow_10">
      <feGaussianBlur in="SourceAlpha" stdDeviation="2.5"/>
      <feOffset dx="0" dy="2" result="offsetblur"/>
      <feFlood flood-color="#000000"/>
      <feComposite in2="offsetblur" operator="in"/>
    </filter>
    <clipPath id="Clip_11">
      <path d="M31.392,8.383 L57.845,8.383 L57.845,45.96 L31.392,45.96 z M42.742,23.907 C43.055,23.907 43.31,24.162 43.31,24.475 L43.31,25.043 L42.742,25.043 C42.429,25.043 42.174,24.789 42.174,24.475 C42.174,24.162 42.429,23.907 42.742,23.907 z M46.494,23.907 C46.807,23.907 47.062,24.162 47.062,24.475 C47.062,24.789 46.807,25.043 46.494,25.043 L45.926,25.043 L45.926,24.475 C45.926,24.162 46.181,23.907 46.494,23.907 z M45.188,25.783 L45.196,31.527 L44.05,31.527 L44.05,25.783 L45.188,25.783 z M44.769,17.122 C47.999,17.925 46.737,17.291 48.74,18.596 C50.243,19.834 51.105,21.66 51.105,23.605 C51.106,25.418 50.336,27.161 48.995,28.386 C48.04,29.258 47.475,30.362 47.369,31.527 L45.936,31.527 L45.928,25.783 L46.494,25.783 C47.215,25.783 47.802,25.196 47.802,24.475 C47.802,23.754 47.215,23.167 46.494,23.167 C45.773,23.167 45.186,23.754 45.186,24.476 L45.187,25.043 L44.05,25.043 L44.05,24.475 C44.05,23.754 43.463,23.167 42.742,23.167 C42.021,23.167 41.434,23.754 41.434,24.475 C41.434,25.196 42.021,25.783 42.742,25.783 L43.31,25.783 L43.31,31.527 L41.838,31.527 C41.681,30.293 41.132,29.194 40.262,28.406 C38.653,26.948 37.883,24.783 38.203,22.615 C38.596,19.962 40.695,17.754 43.31,17.245 L44.769,17.122 z M46.6,36.062 C46.472,36.726 46.009,37.22 45.457,37.22 L43.778,37.22 C43.227,37.22 42.763,36.726 42.635,36.062 L46.6,36.062 z M44.791,16.383 L43.168,16.519 C40.252,17.087 37.909,19.549 37.472,22.507 C37.115,24.92 37.973,27.33 39.766,28.954 C40.574,29.686 41.061,30.74 41.138,31.922 C41.14,31.944 41.144,31.965 41.149,31.985 L41.149,35.693 C41.149,35.897 41.314,36.062 41.518,36.062 L41.887,36.062 C42.037,37.137 42.827,37.96 43.778,37.96 L45.457,37.96 C46.409,37.96 47.198,37.137 47.348,36.062 L47.717,36.062 C47.921,36.062 48.087,35.897 48.086,35.693 L48.086,31.926 C48.087,31.925 48.087,31.924 48.087,31.923 C48.087,30.823 48.586,29.761 49.494,28.932 C50.988,27.567 51.845,25.625 51.845,23.605 C51.845,21.438 50.885,19.405 49.211,18.025 C47.845,17.023 46.547,16.481 44.791,16.383 z"/>
    </clipPath>
    <filter id="Shadow_12">
      <feGaussianBlur in="SourceAlpha" stdDeviation="2.5"/>
      <feOffset dx="0" dy="2" result="offsetblur"/>
      <feFlood flood-color="#000000"/>
      <feComposite in2="offsetblur" operator="in"/>
    </filter>
    <clipPath id="Clip_13">
      <path d="M65.397,9.401 L107.165,9.401 L107.165,60.165 L65.397,60.165 z M94.969,17.401 C93.919,17.598 92.832,17.651 91.819,17.992 C88.885,18.98 87.98,19.656 85.715,21.056 C81.688,23.755 72.485,33.092 75.405,39.153 C76.777,42.03 79.609,43.932 82.219,45.039 C83.503,45.57 87.485,46.499 86.954,48.003 C85.671,51.543 77.397,47.782 74.698,46.322 C73.547,45.702 70.804,46.896 71.512,47.427 C75.627,50.658 88.635,55.349 90.848,49.065 C91.334,47.605 91.113,45.747 89.255,44.729 C85.272,42.472 80.405,42.428 79.432,38.756 C77.84,32.65 86.556,24.597 91.157,21.898 C95.228,19.508 96.644,20.083 97.043,20.525 C97.927,21.587 95.804,25.393 95.361,26.233 C92.529,31.765 87.176,36.234 80.981,37.428 C79.299,37.782 83.237,39.905 86.202,39.287 C94.83,37.517 103.326,26.543 100.67,20.835 C99.291,18.423 97.793,17.439 94.969,17.401 z"/>
    </clipPath>
    <filter id="Shadow_14">
      <feGaussianBlur in="SourceAlpha" stdDeviation="2.5"/>
      <feOffset dx="0" dy="2" result="offsetblur"/>
      <feFlood flood-color="#000000"/>
      <feComposite in2="offsetblur" operator="in"/>
    </filter>
    <clipPath id="Clip_15">
      <path d="M85.555,22.165 L123.121,22.165 L123.121,57.561 L85.555,57.561 z M111.859,30.184 L111.423,30.437 C108.37,33.711 103.281,38.888 98.768,43.224 C100.582,40.216 102.883,36.278 103.989,34.065 C105.095,31.897 102.307,29.243 101.467,30.481 C100.45,31.985 92.617,45.127 91.644,46.985 C90.98,48.269 94.255,49.994 95.051,49.375 C97.086,47.693 101.422,43.711 105.228,39.905 L104.829,40.57 C103.9,42.295 103.015,45.039 103.458,46.631 C104.741,50.879 111.024,51.189 116.555,42.958 C118.06,40.658 116.157,38.268 115.538,39.198 C111.555,44.994 106.953,47.87 106.467,47.427 C106.025,47.03 106.599,45.835 107.219,44.508 C108.767,41.321 112.662,35.924 114.83,32.915 C114.907,32.709 115.101,32.513 115.061,32.297 C114.765,30.715 113.25,30.229 111.859,30.184 z"/>
    </clipPath>
    <filter id="Shadow_16">
      <feGaussianBlur in="SourceAlpha" stdDeviation="2.5"/>
      <feOffset dx="0" dy="2" result="offsetblur"/>
      <feFlood flood-color="#000000"/>
      <feComposite in2="offsetblur" operator="in"/>
    </filter>
    <clipPath id="Clip_17">
      <path d="M107.637,22.538 L141.889,22.538 L141.889,57.592 L107.637,57.592 z M126.163,33.855 L126.334,33.933 C126.997,34.552 125.183,37.871 123.989,39.728 L123.192,40.879 C118.768,46.41 116.555,47.472 116.157,46.941 C115.67,46.277 117.572,42.87 119.431,40.171 C121.13,37.821 123.201,34.617 126.163,33.855 z M124.718,30.538 C123.473,30.804 124.003,30.618 123.104,31.012 C121.201,31.985 118.679,34.198 116.909,36.897 C113.547,41.986 112.396,45.216 115.272,48.136 C118.192,51.056 121.068,49.109 123.59,46.188 C123.635,47.295 123.989,48.269 124.962,48.977 C127.042,50.481 131.157,49.463 135.272,43.269 C136.909,40.835 134.829,38.667 134.298,39.507 C131.997,42.782 127.351,48.047 126.201,47.25 C124.917,46.365 126.733,43.047 128.281,40.658 C129.608,38.534 131.023,36.764 131.422,36.234 C131.82,35.658 130.581,34.33 129.387,33.888 C129.343,32.693 128.015,32.162 127.174,31.543 C125.751,30.61 126.556,30.974 124.718,30.538 z"/>
    </clipPath>
    <filter id="Shadow_18">
      <feGaussianBlur in="SourceAlpha" stdDeviation="2.5"/>
      <feOffset dx="0" dy="2" result="offsetblur"/>
      <feFlood flood-color="#000000"/>
      <feComposite in2="offsetblur" operator="in"/>
    </filter>
    <clipPath id="Clip_19">
      <path d="M127.016,21.497 L158.168,21.497 L158.168,57.518 L127.016,57.518 z M143.33,29.497 L142.794,29.597 C138.811,30.658 133.016,38.888 133.016,43.666 C133.016,46.277 134.21,47.384 135.626,48.269 C141.068,51.808 148.678,47.162 151.554,42.605 C153.236,39.95 150.98,38.18 150.492,38.844 C145.847,45.747 139.519,48.401 137.263,46.853 C135.803,45.835 136.6,42.163 139.476,38.18 C142.218,34.464 144.342,32.915 144.697,33.268 C144.874,33.445 144.608,34.198 143.28,36.543 C142.086,38.622 144.165,41.189 144.785,40.525 C146.156,39.154 146.776,38.048 147.395,36.632 C148.458,33.888 147.927,32.915 144.874,29.994 C144.127,29.485 144.61,29.727 143.33,29.497 z"/>
    </clipPath>
    <filter id="Shadow_20">
      <feGaussianBlur in="SourceAlpha" stdDeviation="2.5"/>
      <feOffset dx="0" dy="2" result="offsetblur"/>
      <feFlood flood-color="#000000"/>
      <feComposite in2="offsetblur" operator="in"/>
    </filter>
    <clipPath id="Clip_21">
      <path d="M141.117,8.542 L178.998,8.542 L178.998,57.507 L141.117,57.507 z M164.435,33.244 L164.608,33.268 C164.962,33.534 164.342,35.172 161.51,37.428 C159.474,39.065 158.014,39.464 156.598,39.728 C157.66,38.579 159.121,37.074 160.536,35.791 C161.734,34.822 162.934,33.722 164.435,33.244 z M165.966,16.542 C165.309,16.628 165.552,16.506 165.182,16.765 C162.13,19.818 152.97,34.419 149.386,40.702 C148.855,41.587 145.405,47.03 148.192,49.198 C148.501,49.418 149.166,49.817 149.74,48.977 C150.758,47.516 152.219,45.171 154.076,42.782 C154.43,44.773 155.404,46.719 157.263,48.092 C159.962,50.083 163.103,49.772 166.156,48.401 C169.032,47.118 171.023,44.508 172.394,42.295 C174.121,39.552 171.643,38.18 171.156,38.844 C169.076,41.941 167.173,44.154 164.962,45.57 C162.174,47.295 160.89,47.428 159.917,47.03 C158.856,46.542 157.66,44.906 157.66,42.958 C162.97,43.269 166.953,37.826 168.192,35.791 C169.475,33.667 168.103,32.03 166.864,31.189 C166.776,31.012 166.642,30.835 166.465,30.614 C165.625,29.685 165.404,28.889 163.014,30.127 C161.952,30.703 159.74,32.296 157.351,34.375 C162.484,28.889 167.262,22.826 167.881,21.632 C168.457,20.525 168.678,19.11 167.793,17.915 C167.303,17.288 166.789,16.704 165.966,16.542 z"/>
    </clipPath>
    <filter id="Shadow_22">
      <feGaussianBlur in="SourceAlpha" stdDeviation="2.5"/>
      <feOffset dx="0" dy="2" result="offsetblur"/>
      <feFlood flood-color="#000000"/>
      <feComposite in2="offsetblur" operator="in"/>
    </filter>
    <clipPath id="Clip_23">
      <path d="M178.074,9.863 L225.61,9.863 L225.61,60.148 L178.074,60.148 z M216.402,17.864 L216.023,18.048 C209.606,25.482 201.289,34.242 193.413,41.853 C195.934,37.914 200.846,30.26 202.04,28.136 C203.368,25.836 206.111,22.649 203.191,19.154 C200.801,16.366 192.04,18.756 188.369,28.8 C187.085,32.296 189.164,36.764 190.049,34.419 C191.288,31.057 192.439,28.8 194.518,25.879 C196.067,23.623 199.961,19.596 201.332,20.747 C202.483,21.676 193.944,32.384 189.474,40.127 C187.484,43.534 184.386,48.844 184.165,49.198 C183.545,50.437 186.244,52.87 187.35,51.941 C194.032,46.101 200.89,39.065 207.35,32.03 C205.049,35.791 202.926,39.64 201.332,43.666 C199.828,47.427 200.315,51.941 204.651,51.941 C207.438,51.941 212.659,47.959 216.377,42.207 C218.323,39.198 216.951,36.057 215.978,37.605 C213.633,41.321 210.979,44.242 207.792,47.339 C205.403,49.684 204.739,49.552 204.474,49.552 C202.084,49.552 206.421,42.738 207.792,40.216 C211.509,33.445 215.801,27.03 219.607,20.348 C219.706,18.809 217.622,18.065 216.402,17.864 z"/>
    </clipPath>
    <filter id="Shadow_24">
      <feGaussianBlur in="SourceAlpha" stdDeviation="2.5"/>
      <feOffset dx="0" dy="2" result="offsetblur"/>
      <feFlood flood-color="#000000"/>
      <feComposite in2="offsetblur" operator="in"/>
    </filter>
    <clipPath id="Clip_25">
      <path d="M207.397,22.401 L241.181,22.401 L241.181,57.842 L207.397,57.842 z M223.234,34.773 C222.925,36.587 223.5,38.977 224.12,40.747 C223.899,41.101 223.722,41.41 223.545,41.675 C222.084,43.888 218.722,48.003 217.527,47.073 C216.465,46.277 217.66,42.118 219.473,39.242 C220.801,37.074 222.129,35.658 223.234,34.773 z M223.405,30.401 C221.869,30.657 221.251,30.86 220.049,31.942 C218.057,33.711 213.898,38.357 213.412,44.197 C213.19,47.162 215.492,48.18 216.243,48.755 C216.996,49.375 219.43,50.923 222.837,48.623 C223.943,47.915 225.137,46.542 226.155,45.127 C228.943,48.49 232.969,45.26 234.561,42.87 C236.288,40.171 233.898,38.445 233.544,39.065 C231.243,42.738 229.385,43.888 228.455,43.534 C228.146,43.401 227.924,42.958 227.747,42.472 C228.058,41.897 228.278,41.366 228.455,40.924 C230.005,36.234 229.96,33.667 225.225,30.968 C224.245,30.489 224.837,30.719 223.405,30.401 z"/>
    </clipPath>
    <filter id="Shadow_26">
      <feGaussianBlur in="SourceAlpha" stdDeviation="2.5"/>
      <feOffset dx="0" dy="2" result="offsetblur"/>
      <feFlood flood-color="#000000"/>
      <feComposite in2="offsetblur" operator="in"/>
    </filter>
    <clipPath id="Clip_27">
      <path d="M225.778,17.137 L254.388,17.137 L254.388,57.588 L225.778,57.588 z M244.03,25.137 L243.588,25.393 C243.456,25.57 241.553,28.047 239.607,30.658 C236.597,30.614 236.642,30.703 235.181,30.702 C234.119,30.703 234.03,33.711 237.305,33.711 C236.509,34.818 235.801,35.746 235.358,36.366 C232.527,40.393 229.429,44.109 234.429,48.8 C236.288,50.569 243.411,49.595 247.703,43.446 C249.517,40.835 247.216,39.065 246.641,39.862 C240.889,47.738 236.554,47.959 235.314,46.853 C234.429,46.056 236.155,42.34 238.013,39.773 C238.5,39.154 240.358,36.543 242.261,33.976 C244.031,33.976 246.287,33.888 246.995,33.888 C249.916,33.888 247.216,30.968 244.517,30.88 C245.536,29.463 246.332,28.358 246.598,27.915 C246.786,26.477 245.291,25.373 244.03,25.137 z"/>
    </clipPath>
    <filter id="Shadow_28">
      <feGaussianBlur in="SourceAlpha" stdDeviation="2.5"/>
      <feOffset dx="0" dy="2" result="offsetblur"/>
      <feFlood flood-color="#000000"/>
      <feComposite in2="offsetblur" operator="in"/>
    </filter>
    <clipPath id="Clip_29">
      <path d="M239.579,21.492 L270.734,21.492 L270.734,57.538 L239.579,57.538 z M257.287,32.854 L257.526,32.87 C257.88,33.136 256.951,35.569 254.783,38.136 C253.146,40.082 251.288,41.676 250.623,41.321 C250.225,41.101 250.934,39.728 252.084,38.136 C253.553,36.159 255.07,34.039 257.287,32.854 z M255.777,29.492 L255.181,29.597 C251.154,30.703 245.579,38.8 245.579,43.489 C245.579,46.101 246.553,47.162 248.278,48.269 C253.676,51.853 261.198,47.162 264.074,42.649 C265.845,39.905 263.543,38.18 263.102,38.844 C258.411,45.747 252.128,48.357 249.828,46.808 C248.986,46.233 248.943,44.242 249.606,42.295 C250.358,43.003 251.642,44.02 252.792,43.8 C255.934,43.135 258.81,40.436 260.358,36.543 C261.464,33.667 261.332,32.473 257.925,30.038 C256.783,29.418 257.475,29.676 255.777,29.492 z"/>
    </clipPath>
    <filter id="Shadow_30">
      <feGaussianBlur in="SourceAlpha" stdDeviation="2.5"/>
      <feOffset dx="0" dy="2" result="offsetblur"/>
      <feFlood flood-color="#000000"/>
      <feComposite in2="offsetblur" operator="in"/>
    </filter>
    <clipPath id="Clip_31">
      <path d="M251.847,19.336 L281.213,19.336 L281.213,58.223 L251.847,58.223 z M268.455,38.003 C268.366,38.8 268.323,39.64 268.234,40.481 C267.969,44.02 267.526,47.915 265.447,47.738 C264.031,47.649 263.455,45.702 263.013,44.331 C264.694,42.561 266.508,40.393 268.455,38.003 z M271.964,27.336 C270.946,27.443 271.316,27.244 270.756,27.693 C268.677,30.172 262.26,41.056 257.968,45.216 C257.26,45.924 259.871,46.188 260.49,46.056 C260.579,46.233 260.579,46.322 260.756,46.587 C262.659,49.729 266.508,51.056 269.871,49.684 C272.349,48.667 271.73,45.525 271.907,43.578 C272.261,38.933 271.242,35.614 274.96,30.88 C275.535,30.172 275.048,29.331 274.34,28.667 C273.049,27.631 273.816,28.117 271.964,27.336 z"/>
    </clipPath>
    <filter id="Shadow_32">
      <feGaussianBlur in="SourceAlpha" stdDeviation="2.5"/>
      <feOffset dx="0" dy="2" result="offsetblur"/>
      <feFlood flood-color="#000000"/>
      <feComposite in2="offsetblur" operator="in"/>
    </filter>
  </defs>
  <g id="Layer_1">
    <g id="snLogo">
      <g>
        <path d="M25.979,10.598 L59.355,29.868 L40.085,63.244 L6.709,43.975 L25.979,10.598 z" clip-path="url(#Clip_1)" filter="url(#Shadow_2)" fill="rgba(0,0,0,0.75)"/>
      </g>
      <g>
        <path d="M63.346,20.668 L53.371,57.895 L63.346,20.668 L63.346,20.668 z" clip-path="url(#Clip_3)" filter="url(#Shadow_4)" fill="rgba(0,0,0,0.75)"/>
        <path d="M26.119,10.693 L63.346,20.668 L53.371,57.895 L16.145,47.92 L26.119,10.693 z" clip-path="url(#Clip_5)" filter="url(#Shadow_6)" fill="rgba(0,0,0,0.75)"/>
      </g>
      <g>
        <path d="M63.75,7.759 L63.75,46.299 L25.211,46.299 L25.211,7.759 L63.75,7.759 z" clip-path="url(#Clip_7)" filter="url(#Shadow_8)" fill="rgba(0,0,0,0.75)"/>
        <path d="M63.75,7.759 L63.75,46.299 L25.211,46.299 L25.211,7.759 L63.75,7.759 z" clip-path="url(#Clip_9)" filter="url(#Shadow_10)" fill="rgba(0,0,0,0.75)"/>
      </g>
      <g id="iconfinder_Tilda_Icons_1ed_lightbulb_14_3586363">
        <path d="M44.791,16.383 C46.547,16.481 47.845,17.023 49.211,18.025 C50.885,19.405 51.845,21.438 51.845,23.605 C51.845,25.625 50.988,27.567 49.494,28.932 C48.586,29.761 48.087,30.823 48.087,31.923 C48.087,31.924 48.087,31.925 48.086,31.926 L48.086,35.693 C48.087,35.897 47.921,36.062 47.717,36.062 L47.348,36.062 C47.198,37.137 46.409,37.96 45.457,37.96 L43.778,37.96 C42.827,37.96 42.037,37.137 41.887,36.062 L41.518,36.062 C41.314,36.062 41.149,35.897 41.149,35.693 L41.149,31.985 C41.144,31.965 41.14,31.944 41.138,31.922 C41.061,30.74 40.574,29.686 39.766,28.954 C37.973,27.33 37.115,24.92 37.472,22.507 C37.909,19.549 40.252,17.087 43.168,16.519 L44.791,16.383 z M46.6,36.062 L42.635,36.062 C42.763,36.726 43.227,37.22 43.778,37.22 L45.457,37.22 C46.009,37.22 46.472,36.726 46.6,36.062 z M44.769,17.122 L43.31,17.245 C40.695,17.754 38.596,19.962 38.203,22.615 C37.883,24.783 38.653,26.948 40.262,28.406 C41.132,29.194 41.681,30.293 41.838,31.527 L43.31,31.527 L43.31,25.783 L42.742,25.783 C42.021,25.783 41.434,25.196 41.434,24.475 C41.434,23.754 42.021,23.167 42.742,23.167 C43.463,23.167 44.05,23.754 44.05,24.475 L44.05,25.043 L45.187,25.043 L45.186,24.476 C45.186,23.754 45.773,23.167 46.494,23.167 C47.215,23.167 47.802,23.754 47.802,24.475 C47.802,25.196 47.215,25.783 46.494,25.783 L45.928,25.783 L45.936,31.527 L47.369,31.527 C47.475,30.362 48.04,29.258 48.995,28.386 C50.336,27.161 51.106,25.418 51.105,23.605 C51.105,21.66 50.243,19.834 48.74,18.596 C46.737,17.291 47.999,17.925 44.769,17.122 z M45.188,25.783 L44.05,25.783 L44.05,31.527 L45.196,31.527 L45.188,25.783 z M46.494,23.907 C46.181,23.907 45.926,24.162 45.926,24.475 L45.926,25.043 L46.494,25.043 C46.807,25.043 47.062,24.789 47.062,24.475 C47.062,24.162 46.807,23.907 46.494,23.907 z M42.742,23.907 C42.429,23.907 42.174,24.162 42.174,24.475 C42.174,24.789 42.429,25.043 42.742,25.043 L43.31,25.043 L43.31,24.475 C43.31,24.162 43.055,23.907 42.742,23.907 z" clip-path="url(#Clip_11)" filter="url(#Shadow_12)" fill="rgba(0,0,0,0.75)"/>
        <path d="M49.211,18.025 C47.538,16.646 45.335,16.097 43.169,16.519 C40.252,17.087 37.909,19.549 37.472,22.507 C37.115,24.92 37.973,27.33 39.766,28.954 C40.574,29.686 41.061,30.74 41.138,31.922 C41.14,31.944 41.144,31.965 41.149,31.985 L41.149,35.693 C41.149,35.897 41.314,36.062 41.518,36.062 L41.887,36.062 C42.037,37.137 42.827,37.96 43.778,37.96 L45.457,37.96 C46.409,37.96 47.198,37.137 47.348,36.062 L47.717,36.062 C47.921,36.062 48.087,35.897 48.087,35.693 L48.087,31.926 C48.087,31.925 48.087,31.924 48.087,31.923 C48.087,30.823 48.586,29.761 49.494,28.932 C50.988,27.567 51.845,25.625 51.845,23.605 C51.845,21.438 50.885,19.405 49.211,18.025 z M43.31,25.043 L42.742,25.043 C42.429,25.043 42.174,24.789 42.174,24.475 C42.174,24.162 42.429,23.907 42.742,23.907 C43.055,23.907 43.31,24.162 43.31,24.475 L43.31,25.043 z M45.926,24.475 C45.926,24.162 46.181,23.907 46.494,23.907 C46.807,23.907 47.062,24.162 47.062,24.475 C47.062,24.789 46.807,25.043 46.494,25.043 L45.926,25.043 L45.926,24.475 z M45.703,32.267 L47.347,32.267 L47.347,35.323 L47.009,35.323 C47.008,35.323 47.007,35.322 47.006,35.322 C47.005,35.322 47.005,35.323 47.004,35.323 L42.232,35.323 C42.231,35.323 42.23,35.322 42.229,35.322 C42.228,35.322 42.228,35.323 42.227,35.323 L41.889,35.323 L41.889,32.267 L45.43,32.267 M44.05,31.527 L44.05,25.783 L45.188,25.783 L45.196,31.527 L44.05,31.527 z M45.457,37.22 L43.778,37.22 C43.227,37.22 42.763,36.726 42.635,36.062 L46.6,36.062 C46.472,36.726 46.009,37.22 45.457,37.22 z M48.995,28.386 C48.04,29.258 47.475,30.362 47.37,31.527 L45.936,31.527 L45.928,25.783 L46.494,25.783 C47.215,25.783 47.802,25.196 47.802,24.475 C47.802,23.754 47.215,23.167 46.494,23.167 C45.773,23.167 45.186,23.754 45.186,24.476 L45.187,25.043 L44.05,25.043 L44.05,24.475 C44.05,23.754 43.463,23.167 42.742,23.167 C42.021,23.167 41.434,23.754 41.434,24.475 C41.434,25.196 42.021,25.783 42.742,25.783 L43.31,25.783 L43.31,31.527 L41.838,31.527 C41.681,30.293 41.132,29.194 40.262,28.406 C38.653,26.948 37.883,24.783 38.203,22.615 C38.596,19.962 40.695,17.754 43.31,17.245 C45.259,16.866 47.239,17.358 48.74,18.596 C50.243,19.834 51.105,21.66 51.105,23.605 C51.106,25.418 50.336,27.161 48.995,28.386 z" fill="#1B1D0D"/>
      </g>
      <g>
        <g>
          <path d="M94.969,17.401 C97.793,17.439 99.291,18.423 100.67,20.835 C103.326,26.543 94.83,37.517 86.202,39.287 C83.237,39.905 79.299,37.782 80.981,37.428 C87.176,36.234 92.529,31.765 95.361,26.233 C95.804,25.393 97.927,21.587 97.043,20.525 C96.644,20.083 95.228,19.508 91.157,21.898 C86.556,24.597 77.84,32.65 79.432,38.756 C80.405,42.428 85.272,42.472 89.255,44.729 C91.113,45.747 91.334,47.605 90.848,49.065 C88.635,55.349 75.627,50.658 71.512,47.427 C70.804,46.896 73.547,45.702 74.698,46.322 C77.397,47.782 85.671,51.543 86.954,48.003 C87.485,46.499 83.503,45.57 82.219,45.039 C79.609,43.932 76.777,42.03 75.405,39.153 C72.485,33.092 81.688,23.755 85.715,21.056 C87.98,19.656 88.885,18.98 91.819,17.992 C92.832,17.651 93.919,17.598 94.969,17.401 z" clip-path="url(#Clip_13)" filter="url(#Shadow_14)" fill="rgba(0,0,0,0.75)"/>
          <path d="M91.157,21.898 C95.228,19.508 96.644,20.083 97.043,20.525 C97.927,21.587 95.804,25.393 95.361,26.233 C92.529,31.765 87.176,36.234 80.981,37.428 C79.299,37.782 83.237,39.905 86.202,39.287 C94.83,37.517 103.326,26.543 100.67,20.835 C97.838,14.862 90.538,17.826 85.715,21.056 C81.688,23.755 72.485,33.092 75.405,39.154 C76.777,42.03 79.609,43.932 82.219,45.039 C83.503,45.57 87.485,46.499 86.954,48.003 C85.671,51.543 77.397,47.782 74.698,46.322 C73.547,45.702 70.804,46.896 71.512,47.427 C75.627,50.658 88.635,55.349 90.848,49.066 C91.334,47.605 91.113,45.747 89.255,44.729 C85.272,42.472 80.405,42.428 79.432,38.756 C77.84,32.65 86.556,24.597 91.157,21.898 z" fill="#1B1D0D"/>
        </g>
        <g>
          <path d="M111.859,30.184 C113.25,30.229 114.765,30.715 115.061,32.297 C115.101,32.513 114.907,32.709 114.83,32.915 C112.662,35.924 108.767,41.321 107.219,44.508 C106.599,45.835 106.025,47.03 106.467,47.427 C106.953,47.87 111.555,44.994 115.538,39.198 C116.157,38.268 118.06,40.658 116.555,42.958 C111.024,51.189 104.741,50.879 103.458,46.631 C103.015,45.039 103.9,42.295 104.829,40.57 L105.228,39.905 C101.422,43.711 97.086,47.693 95.051,49.375 C94.255,49.994 90.98,48.269 91.644,46.985 C92.617,45.127 100.45,31.985 101.467,30.481 C102.307,29.243 105.095,31.897 103.989,34.065 C102.883,36.278 100.582,40.216 98.768,43.224 C103.281,38.888 108.37,33.711 111.423,30.437 L111.859,30.184 z" clip-path="url(#Clip_15)" filter="url(#Shadow_16)" fill="rgba(0,0,0,0.75)"/>
          <path d="M91.644,46.985 C90.98,48.269 94.255,49.994 95.051,49.375 C97.086,47.693 101.422,43.711 105.228,39.905 C105.095,40.127 104.963,40.348 104.829,40.57 C103.9,42.295 103.015,45.039 103.458,46.631 C104.741,50.879 111.024,51.189 116.555,42.958 C118.06,40.658 116.157,38.268 115.538,39.198 C111.555,44.994 106.953,47.87 106.467,47.427 C106.025,47.03 106.599,45.835 107.219,44.508 C108.767,41.321 112.662,35.924 114.83,32.915 C116.024,31.277 112.263,29.42 111.423,30.437 C108.37,33.711 103.281,38.888 98.768,43.224 C100.582,40.216 102.883,36.278 103.989,34.065 C105.095,31.897 102.307,29.243 101.467,30.481 C100.45,31.985 92.617,45.127 91.644,46.985 z" fill="#1B1D0D"/>
        </g>
        <g>
          <path d="M124.718,30.538 C126.556,30.974 125.751,30.61 127.174,31.543 C128.015,32.162 129.343,32.693 129.387,33.888 C130.581,34.33 131.82,35.658 131.422,36.234 C131.023,36.764 129.608,38.534 128.281,40.658 C126.733,43.047 124.917,46.365 126.201,47.25 C127.351,48.047 131.997,42.782 134.298,39.507 C134.829,38.667 136.909,40.835 135.272,43.269 C131.157,49.463 127.042,50.481 124.962,48.977 C123.989,48.269 123.635,47.295 123.59,46.188 C121.068,49.109 118.192,51.056 115.272,48.136 C112.396,45.216 113.547,41.986 116.909,36.897 C118.679,34.198 121.201,31.985 123.104,31.012 C124.003,30.618 123.473,30.804 124.718,30.538 z M126.163,33.855 C123.201,34.617 121.13,37.821 119.431,40.171 C117.572,42.87 115.67,46.277 116.157,46.941 C116.555,47.472 118.768,46.41 123.192,40.879 L123.989,39.728 C125.183,37.871 126.997,34.552 126.334,33.933 L126.163,33.855 z" clip-path="url(#Clip_17)" filter="url(#Shadow_18)" fill="rgba(0,0,0,0.75)"/>
          <path d="M134.298,39.508 C131.997,42.782 127.351,48.047 126.201,47.25 C124.917,46.365 126.733,43.047 128.281,40.658 C129.608,38.534 131.023,36.764 131.422,36.234 C131.82,35.658 130.581,34.33 129.387,33.888 C129.343,32.693 128.015,32.162 127.174,31.543 C125.759,30.437 124.697,30.215 123.104,31.012 C121.201,31.985 118.679,34.198 116.909,36.897 C113.547,41.986 112.396,45.216 115.272,48.136 C118.192,51.056 121.068,49.109 123.59,46.188 C123.635,47.295 123.989,48.269 124.962,48.977 C127.042,50.481 131.157,49.463 135.272,43.269 C136.909,40.835 134.829,38.667 134.298,39.508 z M116.157,46.941 C115.67,46.277 117.572,42.87 119.431,40.171 C122.219,36.057 125.582,33.313 126.334,33.933 C126.997,34.552 125.183,37.871 123.989,39.728 L123.192,40.879 C118.768,46.41 116.555,47.472 116.157,46.941 z" fill="#1B1D0D"/>
        </g>
        <g>
          <path d="M143.33,29.497 C144.61,29.727 144.127,29.485 144.874,29.994 C147.927,32.915 148.458,33.888 147.395,36.632 C146.776,38.048 146.156,39.154 144.785,40.525 C144.165,41.189 142.086,38.622 143.28,36.543 C144.608,34.198 144.874,33.445 144.697,33.268 C144.342,32.915 142.218,34.464 139.476,38.18 C136.6,42.163 135.803,45.835 137.263,46.853 C139.519,48.401 145.847,45.747 150.492,38.844 C150.98,38.18 153.236,39.95 151.554,42.605 C148.678,47.162 141.068,51.808 135.626,48.269 C134.21,47.384 133.016,46.277 133.016,43.666 C133.016,38.888 138.811,30.658 142.794,29.597 L143.33,29.497 z" clip-path="url(#Clip_19)" filter="url(#Shadow_20)" fill="rgba(0,0,0,0.75)"/>
          <path d="M144.785,40.525 C146.156,39.154 146.776,38.048 147.395,36.632 C148.458,33.888 147.927,32.915 144.874,29.995 C144.386,29.508 143.457,29.375 142.794,29.597 C138.811,30.658 133.016,38.888 133.016,43.666 C133.016,46.277 134.21,47.384 135.626,48.269 C141.068,51.808 148.678,47.162 151.554,42.605 C153.236,39.95 150.98,38.18 150.492,38.844 C145.847,45.747 139.519,48.401 137.263,46.853 C135.803,45.835 136.6,42.163 139.476,38.18 C142.218,34.464 144.342,32.915 144.697,33.268 C144.874,33.445 144.608,34.198 143.28,36.543 C142.086,38.622 144.165,41.189 144.785,40.525 z" fill="#1B1D0D"/>
        </g>
        <g>
          <path d="M165.966,16.542 C166.789,16.704 167.303,17.288 167.793,17.915 C168.678,19.11 168.457,20.525 167.881,21.632 C167.262,22.826 162.484,28.889 157.351,34.375 C159.74,32.296 161.952,30.703 163.014,30.127 C165.404,28.889 165.625,29.685 166.465,30.614 C166.642,30.835 166.776,31.012 166.864,31.189 C168.103,32.03 169.475,33.667 168.192,35.791 C166.953,37.826 162.97,43.269 157.66,42.958 C157.66,44.906 158.856,46.542 159.917,47.03 C160.89,47.428 162.174,47.295 164.962,45.57 C167.173,44.154 169.076,41.941 171.156,38.844 C171.643,38.18 174.121,39.552 172.394,42.295 C171.023,44.508 169.032,47.118 166.156,48.401 C163.103,49.772 159.962,50.083 157.263,48.092 C155.404,46.719 154.43,44.773 154.076,42.782 C152.219,45.171 150.758,47.516 149.74,48.977 C149.166,49.817 148.501,49.418 148.192,49.198 C145.405,47.03 148.855,41.587 149.386,40.702 C152.97,34.419 162.13,19.818 165.182,16.765 C165.552,16.506 165.309,16.628 165.966,16.542 z M164.435,33.244 C162.934,33.722 161.734,34.822 160.536,35.791 C159.121,37.074 157.66,38.579 156.598,39.728 C158.014,39.464 159.474,39.065 161.51,37.428 C164.342,35.172 164.962,33.534 164.608,33.268 L164.435,33.244 z" clip-path="url(#Clip_21)" filter="url(#Shadow_22)" fill="rgba(0,0,0,0.75)"/>
          <path d="M149.386,40.702 C148.855,41.587 145.405,47.03 148.192,49.198 C148.501,49.418 149.166,49.817 149.74,48.977 C150.758,47.516 152.219,45.171 154.076,42.782 C154.43,44.773 155.404,46.719 157.263,48.092 C159.962,50.083 163.103,49.772 166.156,48.401 C169.032,47.118 171.023,44.508 172.394,42.295 C174.121,39.552 171.643,38.18 171.156,38.844 C169.076,41.941 167.173,44.154 164.962,45.57 C162.174,47.295 160.89,47.428 159.917,47.03 C158.856,46.542 157.66,44.906 157.66,42.958 C162.97,43.269 166.953,37.826 168.192,35.791 C169.475,33.667 168.103,32.03 166.864,31.189 C166.776,31.012 166.642,30.835 166.465,30.614 C165.625,29.685 165.404,28.889 163.015,30.127 C161.952,30.703 159.74,32.296 157.351,34.375 C162.484,28.889 167.262,22.826 167.881,21.632 C168.457,20.525 168.678,19.11 167.793,17.915 C166.819,16.5 165.67,16.278 165.183,16.765 C162.13,19.818 152.97,34.419 149.386,40.702 z M160.536,35.791 C162.44,34.11 164.342,33.048 164.608,33.268 C164.962,33.534 164.342,35.172 161.51,37.428 C159.474,39.065 158.014,39.464 156.598,39.728 C157.66,38.579 159.121,37.074 160.536,35.791 z" fill="#1B1D0D"/>
        </g>
        <g>
          <path d="M216.402,17.864 C217.622,18.065 219.706,18.809 219.607,20.348 C215.801,27.03 211.509,33.445 207.792,40.216 C206.421,42.738 202.084,49.552 204.474,49.552 C204.739,49.552 205.403,49.684 207.792,47.339 C210.979,44.242 213.633,41.321 215.978,37.605 C216.951,36.057 218.323,39.198 216.377,42.207 C212.659,47.959 207.438,51.941 204.651,51.941 C200.315,51.941 199.828,47.427 201.332,43.666 C202.926,39.64 205.049,35.791 207.35,32.03 C200.89,39.065 194.032,46.101 187.35,51.941 C186.244,52.87 183.545,50.437 184.165,49.198 C184.386,48.844 187.484,43.534 189.474,40.127 C193.944,32.384 202.483,21.676 201.332,20.747 C199.961,19.596 196.067,23.623 194.518,25.879 C192.439,28.8 191.288,31.057 190.049,34.419 C189.164,36.764 187.085,32.296 188.369,28.8 C192.04,18.756 200.801,16.366 203.191,19.154 C206.111,22.649 203.368,25.836 202.04,28.136 C200.846,30.26 195.934,37.914 193.413,41.853 C201.289,34.242 209.606,25.482 216.023,18.048 L216.402,17.864 z" clip-path="url(#Clip_23)" filter="url(#Shadow_24)" fill="rgba(0,0,0,0.75)"/>
          <path d="M187.35,51.941 C194.032,46.101 200.89,39.065 207.35,32.03 C205.049,35.791 202.926,39.64 201.332,43.666 C199.828,47.427 200.315,51.941 204.651,51.941 C207.438,51.941 212.659,47.959 216.377,42.207 C218.323,39.198 216.951,36.057 215.978,37.605 C213.633,41.321 210.979,44.242 207.792,47.339 C205.403,49.684 204.739,49.552 204.474,49.552 C202.084,49.552 206.421,42.738 207.792,40.216 C211.509,33.445 215.801,27.03 219.607,20.348 C220.138,19.331 216.731,17.207 216.023,18.048 C209.606,25.482 201.289,34.242 193.413,41.853 C195.934,37.914 200.846,30.26 202.04,28.136 C203.368,25.836 206.111,22.649 203.191,19.154 C200.801,16.366 192.04,18.756 188.369,28.8 C187.085,32.296 189.164,36.764 190.049,34.419 C191.288,31.057 192.439,28.8 194.518,25.879 C196.067,23.623 199.961,19.596 201.332,20.747 C202.483,21.676 193.944,32.384 189.474,40.127 C187.484,43.534 184.386,48.844 184.165,49.198 C183.545,50.437 186.244,52.87 187.35,51.941 z" fill="#1B1D0D"/>
        </g>
        <g>
          <path d="M223.405,30.401 C224.837,30.719 224.245,30.489 225.225,30.968 C229.96,33.667 230.005,36.234 228.455,40.924 C228.278,41.366 228.058,41.897 227.747,42.472 C227.924,42.958 228.146,43.401 228.455,43.534 C229.385,43.888 231.243,42.738 233.544,39.065 C233.898,38.445 236.288,40.171 234.561,42.87 C232.969,45.26 228.943,48.49 226.155,45.127 C225.137,46.542 223.943,47.915 222.837,48.623 C219.43,50.923 216.996,49.375 216.243,48.755 C215.492,48.18 213.19,47.162 213.412,44.197 C213.898,38.357 218.057,33.711 220.049,31.942 C221.251,30.86 221.869,30.657 223.405,30.401 z M223.234,34.773 C222.129,35.658 220.801,37.074 219.473,39.242 C217.66,42.118 216.465,46.277 217.527,47.073 C218.722,48.003 222.084,43.888 223.545,41.675 C223.722,41.41 223.899,41.101 224.12,40.747 C223.5,38.977 222.925,36.587 223.234,34.773 z" clip-path="url(#Clip_25)" filter="url(#Shadow_26)" fill="rgba(0,0,0,0.75)"/>
          <path d="M233.544,39.065 C231.243,42.738 229.385,43.888 228.455,43.534 C228.146,43.401 227.924,42.958 227.747,42.472 C228.058,41.897 228.278,41.366 228.455,40.924 C230.005,36.234 229.96,33.667 225.225,30.968 C223.589,30.038 222.084,30.172 220.049,31.942 C218.057,33.711 213.898,38.357 213.412,44.197 C213.19,47.162 215.492,48.18 216.243,48.755 C216.996,49.375 219.43,50.923 222.837,48.623 C223.943,47.915 225.137,46.542 226.155,45.127 C228.943,48.49 232.969,45.26 234.561,42.87 C236.288,40.171 233.898,38.445 233.544,39.065 z M217.527,47.073 C216.465,46.277 217.66,42.118 219.473,39.242 C220.801,37.074 222.129,35.658 223.235,34.773 C222.925,36.587 223.5,38.977 224.12,40.747 C223.899,41.101 223.722,41.41 223.545,41.676 C222.084,43.888 218.722,48.003 217.527,47.073 z" fill="#1B1D0D"/>
        </g>
        <g>
          <path d="M244.03,25.137 C245.291,25.373 246.786,26.477 246.598,27.915 C246.332,28.358 245.536,29.463 244.517,30.88 C247.216,30.968 249.916,33.888 246.995,33.888 C246.287,33.888 244.031,33.976 242.261,33.976 C240.358,36.543 238.5,39.154 238.013,39.773 C236.155,42.34 234.429,46.056 235.314,46.853 C236.554,47.959 240.889,47.738 246.641,39.862 C247.216,39.065 249.517,40.835 247.703,43.446 C243.411,49.595 236.288,50.569 234.429,48.8 C229.429,44.109 232.527,40.393 235.358,36.366 C235.801,35.746 236.509,34.818 237.305,33.711 C234.03,33.711 234.119,30.703 235.181,30.702 C236.642,30.703 236.597,30.614 239.607,30.658 C241.553,28.047 243.456,25.57 243.588,25.393 L244.03,25.137 z" clip-path="url(#Clip_27)" filter="url(#Shadow_28)" fill="rgba(0,0,0,0.75)"/>
          <path d="M244.517,30.88 C245.536,29.463 246.332,28.358 246.598,27.915 C247.084,27.074 244.606,24.243 243.588,25.393 C243.456,25.57 241.553,28.047 239.607,30.658 C236.597,30.614 236.642,30.703 235.181,30.703 C234.119,30.703 234.03,33.711 237.305,33.711 C236.509,34.818 235.801,35.746 235.358,36.366 C232.527,40.393 229.429,44.109 234.429,48.8 C236.288,50.569 243.411,49.595 247.703,43.446 C249.517,40.835 247.216,39.065 246.641,39.862 C240.889,47.738 236.554,47.959 235.314,46.853 C234.429,46.056 236.155,42.34 238.013,39.773 C238.5,39.154 240.358,36.543 242.261,33.976 C244.031,33.976 246.287,33.888 246.995,33.888 C249.916,33.888 247.216,30.968 244.517,30.88 z" fill="#1B1D0D"/>
        </g>
        <g>
          <path d="M255.777,29.492 C257.475,29.676 256.783,29.418 257.925,30.038 C261.332,32.473 261.464,33.667 260.358,36.543 C258.81,40.436 255.934,43.135 252.792,43.8 C251.642,44.02 250.358,43.003 249.606,42.295 C248.943,44.242 248.986,46.233 249.828,46.808 C252.128,48.357 258.411,45.747 263.102,38.844 C263.543,38.18 265.845,39.905 264.074,42.649 C261.198,47.162 253.676,51.853 248.278,48.269 C246.553,47.162 245.579,46.101 245.579,43.489 C245.579,38.8 251.154,30.703 255.181,29.597 L255.777,29.492 z M257.287,32.854 C255.07,34.039 253.553,36.159 252.084,38.136 C250.934,39.728 250.225,41.101 250.623,41.321 C251.288,41.676 253.146,40.082 254.783,38.136 C256.951,35.569 257.88,33.136 257.526,32.87 L257.287,32.854 z" clip-path="url(#Clip_29)" filter="url(#Shadow_30)" fill="rgba(0,0,0,0.75)"/>
          <path d="M255.181,29.597 C251.154,30.703 245.579,38.8 245.579,43.489 C245.579,46.101 246.553,47.162 248.278,48.269 C253.676,51.853 261.198,47.162 264.074,42.649 C265.845,39.905 263.543,38.18 263.102,38.844 C258.411,45.747 252.128,48.357 249.828,46.808 C248.986,46.233 248.943,44.242 249.606,42.295 C250.358,43.003 251.642,44.02 252.792,43.8 C255.934,43.135 258.81,40.436 260.358,36.543 C261.464,33.667 261.332,32.473 257.925,30.038 C256.995,29.331 255.889,29.42 255.181,29.597 z M252.084,38.136 C254.738,34.375 257.128,32.561 257.526,32.871 C257.88,33.136 256.951,35.569 254.783,38.136 C253.146,40.082 251.288,41.676 250.623,41.321 C250.225,41.101 250.934,39.728 252.084,38.136 z" fill="#1B1D0D"/>
        </g>
        <g>
          <path d="M271.964,27.336 C273.816,28.117 273.049,27.631 274.34,28.667 C275.048,29.331 275.535,30.172 274.96,30.88 C271.242,35.614 272.261,38.933 271.907,43.578 C271.73,45.525 272.349,48.667 269.871,49.684 C266.508,51.056 262.659,49.729 260.756,46.587 C260.579,46.322 260.579,46.233 260.49,46.056 C259.871,46.188 257.26,45.924 257.968,45.216 C262.26,41.056 268.677,30.172 270.756,27.693 C271.316,27.244 270.946,27.443 271.964,27.336 z M268.455,38.003 C266.508,40.393 264.694,42.561 263.013,44.331 C263.455,45.702 264.031,47.649 265.447,47.738 C267.526,47.915 267.969,44.02 268.234,40.481 C268.323,39.64 268.366,38.8 268.455,38.003 z" clip-path="url(#Clip_31)" filter="url(#Shadow_32)" fill="rgba(0,0,0,0.75)"/>
          <path d="M274.34,28.667 C273.367,27.693 271.508,26.764 270.756,27.693 C268.677,30.172 262.26,41.056 257.968,45.216 C257.26,45.924 259.871,46.188 260.49,46.056 C260.579,46.233 260.579,46.322 260.756,46.587 C262.659,49.729 266.508,51.056 269.871,49.684 C272.349,48.667 271.73,45.525 271.907,43.578 C272.261,38.933 271.242,35.614 274.96,30.88 C275.535,30.172 275.048,29.331 274.34,28.667 z M265.447,47.738 C264.031,47.649 263.455,45.702 263.013,44.331 C264.694,42.561 266.508,40.393 268.455,38.003 C268.366,38.8 268.323,39.64 268.234,40.481 C267.969,44.02 267.526,47.915 265.447,47.738 z" fill="#1B1D0D"/>
        </g>
      </g>
    </g>
  </g>
</svg>
