<?xml version="1.0" encoding="UTF-8"?>
<!DOCTYPE svg PUBLIC "-//W3C//DTD SVG 1.1//EN" "http://www.w3.org/Graphics/SVG/1.1/DTD/svg11.dtd">
<svg version="1.1" xmlns="http://www.w3.org/2000/svg" xmlns:xlink="http://www.w3.org/1999/xlink" x="0" y="0" width="306" height="288" viewBox="0, 0, 306, 288">
  <defs>
    <clipPath id="Clip_1">
      <path d="M-6.006,6.765 L279.199,6.765 L279.199,295.97 L-6.006,295.97 z M99.994,14.765 L-0.006,187.97 L173.199,287.97 L273.199,114.765 L99.994,14.765 z"/>
    </clipPath>
    <filter id="Shadow_2">
      <feGaussianBlur in="SourceAlpha" stdDeviation="2.5"/>
      <feOffset dx="0" dy="2" result="offsetblur"/>
      <feFlood flood-color="#000000"/>
      <feComposite in2="offsetblur" operator="in"/>
    </filter>
    <clipPath id="Clip_3">
      <path d="M42.959,7.259 L299.908,7.259 L299.908,268.208 L42.959,268.208 z M100.723,15.259 L48.959,208.444 L242.144,260.208 L293.908,67.023 L100.723,15.259 z"/>
    </clipPath>
    <filter id="Shadow_4">
      <feGaussianBlur in="SourceAlpha" stdDeviation="2.5"/>
      <feOffset dx="0" dy="2" result="offsetblur"/>
      <feFlood flood-color="#000000"/>
      <feComposite in2="offsetblur" operator="in"/>
    </filter>
    <clipPath id="Clip_5">
      <path d="M90.006,-7.97 L302.006,-7.97 L302.006,208.03 L90.006,208.03 z M296.006,0.03 L96.006,0.03 L96.006,200.03 L296.006,200.03 L296.006,0.03 z"/>
    </clipPath>
    <filter id="Shadow_6">
      <feGaussianBlur in="SourceAlpha" stdDeviation="2.5"/>
      <feOffset dx="0" dy="2" result="offsetblur"/>
      <feFlood flood-color="#000000"/>
      <feComposite in2="offsetblur" operator="in"/>
    </filter>
  </defs>
  <g id="Layer_1">
    <g>
      <g>
        <path d="M99.994,14.765 L273.199,114.765 L173.199,287.97 L-0.006,187.97 L99.994,14.765 z" clip-path="url(#Clip_1)" filter="url(#Shadow_2)" fill="rgba(0,0,0,0.75)"/>
        <path d="M99.994,14.765 L273.199,114.765 L173.199,287.97 L-0.006,187.97 L99.994,14.765 z" fill="#2ECC71"/>
      </g>
      <g>
        <path d="M100.723,15.259 L293.908,67.023 L242.144,260.208 L48.959,208.444 L100.723,15.259 z" clip-path="url(#Clip_3)" filter="url(#Shadow_4)" fill="rgba(0,0,0,0.75)"/>
        <path d="M100.723,15.259 L293.908,67.023 L242.144,260.208 L48.959,208.444 L100.723,15.259 z" fill="#E74C3C"/>
      </g>
      <g>
        <path d="M296.006,0.03 L296.006,200.03 L96.006,200.03 L96.006,0.03 L296.006,0.03 z" clip-path="url(#Clip_5)" filter="url(#Shadow_6)" fill="rgba(0,0,0,0.75)"/>
        <path d="M96.006,0.03 L296.006,0.03 L296.006,200.03 L96.006,200.03 L96.006,0.03 z" fill="#FFDA00"/>
      </g>
      <path d="M220.558,53.308 C211.874,46.151 200.442,43.303 189.199,45.492 C174.063,48.438 161.907,61.215 159.637,76.563 C157.786,89.088 162.236,101.596 171.54,110.024 C175.733,113.821 178.262,119.29 178.664,125.426 C178.671,125.537 178.693,125.645 178.717,125.751 L178.717,144.991 C178.717,146.05 179.576,146.91 180.636,146.91 L182.549,146.91 C183.328,152.486 187.427,156.757 192.364,156.757 L201.076,156.757 C206.013,156.757 210.111,152.486 210.89,146.91 L212.802,146.91 C213.862,146.91 214.721,146.05 214.721,144.991 L214.721,125.444 C214.721,125.44 214.723,125.436 214.723,125.431 C214.723,119.723 217.315,114.21 222.023,109.909 C229.778,102.824 234.225,92.747 234.225,82.263 C234.226,71.02 229.244,60.465 220.558,53.308 z M189.935,89.727 L186.986,89.727 C185.36,89.727 184.037,88.405 184.037,86.779 C184.037,85.153 185.36,83.83 186.986,83.83 C188.612,83.83 189.935,85.153 189.935,86.779 L189.935,89.727 z M203.507,86.779 C203.507,85.153 204.83,83.83 206.457,83.83 C208.083,83.83 209.406,85.153 209.406,86.779 C209.406,88.405 208.083,89.727 206.457,89.727 L203.511,89.727 L203.507,86.779 z M202.352,127.213 L210.885,127.213 L210.885,143.072 L209.128,143.072 C209.124,143.072 209.121,143.07 209.115,143.07 C209.11,143.07 209.108,143.072 209.103,143.072 L184.337,143.072 C184.334,143.072 184.33,143.07 184.325,143.07 C184.32,143.07 184.317,143.072 184.312,143.072 L182.557,143.072 L182.557,127.213 L200.935,127.213 M193.772,123.375 L193.772,93.565 L199.679,93.565 L199.723,123.375 L193.772,123.375 z M201.076,152.919 L192.364,152.919 C189.501,152.919 187.097,150.355 186.432,146.91 L207.007,146.91 C206.343,150.355 203.939,152.919 201.076,152.919 z M219.435,107.076 C214.481,111.601 211.549,117.328 211,123.375 L203.559,123.375 L203.517,93.565 L206.457,93.565 C210.199,93.565 213.244,90.521 213.244,86.779 C213.244,83.037 210.199,79.992 206.457,79.992 C202.714,79.992 199.669,83.037 199.669,86.781 L199.673,89.727 L193.772,89.727 L193.772,86.779 C193.772,83.037 190.728,79.992 186.986,79.992 C183.244,79.992 180.199,83.037 180.199,86.779 C180.199,90.521 183.244,93.565 186.986,93.565 L189.935,93.565 L189.935,123.375 L182.294,123.375 C181.481,116.972 178.63,111.266 174.116,107.179 C165.764,99.613 161.77,88.378 163.433,77.124 C165.469,63.358 176.365,51.9 189.931,49.258 C200.048,47.291 210.321,49.844 218.114,56.269 C225.913,62.695 230.386,72.17 230.386,82.264 C230.388,91.672 226.395,100.717 219.435,107.076 z" fill="#000000" id="iconfinder_Tilda_Icons_1ed_lightbulb_14_3586363"/>
      <g>
        <path d="M124.541,159.199 C128.082,157.12 129.314,157.62 129.661,158.005 C130.43,158.929 128.583,162.24 128.198,162.971 C125.734,167.783 121.077,171.671 115.688,172.71 C114.225,173.018 117.651,174.865 120.23,174.327 C127.736,172.787 135.127,163.24 132.817,158.275 C130.353,153.078 124.002,155.657 119.806,158.467 C116.303,160.815 108.297,168.938 110.837,174.211 C112.031,176.713 114.494,178.368 116.765,179.331 C117.882,179.793 121.346,180.601 120.884,181.91 C119.768,184.989 112.57,181.717 110.222,180.447 C109.221,179.908 106.834,180.947 107.45,181.409 C111.03,184.219 122.347,188.3 124.272,182.834 C124.695,181.563 124.502,179.947 122.886,179.061 C119.421,177.098 115.187,177.06 114.34,173.865 C112.955,168.553 120.538,161.547 124.541,159.199 z" fill="#000000"/>
        <path d="M124.964,181.024 C124.387,182.141 127.236,183.642 127.928,183.103 C129.699,181.64 133.471,178.176 136.782,174.865 C136.666,175.058 136.551,175.25 136.435,175.443 C135.627,176.944 134.857,179.331 135.242,180.716 C136.358,184.412 141.824,184.681 146.636,177.521 C147.945,175.52 146.29,173.441 145.751,174.25 C142.286,179.292 138.283,181.794 137.86,181.409 C137.475,181.063 137.975,180.024 138.514,178.869 C139.861,176.097 143.249,171.401 145.135,168.784 C146.174,167.359 142.902,165.743 142.171,166.628 C139.515,169.476 135.088,173.98 131.162,177.752 C132.74,175.135 134.742,171.709 135.704,169.784 C136.666,167.898 134.241,165.589 133.51,166.666 C132.625,167.975 125.811,179.408 124.964,181.024 z" fill="#000000"/>
        <path d="M162.072,174.519 C160.07,177.368 156.028,181.948 155.028,181.255 C153.911,180.485 155.49,177.598 156.837,175.52 C157.992,173.672 159.223,172.132 159.57,171.671 C159.916,171.17 158.838,170.015 157.799,169.63 C157.761,168.591 156.606,168.129 155.874,167.59 C154.643,166.628 153.719,166.435 152.333,167.128 C150.678,167.975 148.484,169.9 146.944,172.248 C144.019,176.675 143.018,179.485 145.52,182.025 C148.06,184.566 150.562,182.872 152.756,180.331 C152.795,181.294 153.103,182.141 153.95,182.757 C155.759,184.065 159.339,183.18 162.919,177.791 C164.343,175.674 162.534,173.788 162.072,174.519 z M146.29,180.986 C145.866,180.408 147.521,177.444 149.138,175.096 C151.563,171.517 154.489,169.13 155.143,169.669 C155.72,170.208 154.142,173.095 153.103,174.711 L152.41,175.712 C148.561,180.524 146.636,181.448 146.29,180.986 z" fill="#000000"/>
        <path d="M171.195,175.404 C172.388,174.211 172.927,173.249 173.466,172.017 C174.39,169.63 173.928,168.784 171.272,166.243 C170.848,165.82 170.04,165.704 169.463,165.897 C165.998,166.82 160.956,173.98 160.956,178.137 C160.956,180.408 161.995,181.371 163.227,182.141 C167.961,185.22 174.582,181.178 177.084,177.214 C178.547,174.904 176.584,173.364 176.16,173.942 C172.119,179.947 166.614,182.256 164.651,180.909 C163.381,180.024 164.074,176.829 166.576,173.364 C168.962,170.131 170.81,168.784 171.118,169.091 C171.272,169.245 171.041,169.9 169.886,171.94 C168.847,173.749 170.656,175.982 171.195,175.404 z" fill="#000000"/>
        <path d="M175.198,175.558 C174.736,176.328 171.734,181.063 174.159,182.949 C174.428,183.141 175.006,183.488 175.506,182.757 C176.391,181.486 177.662,179.446 179.278,177.368 C179.586,179.1 180.433,180.793 182.05,181.987 C184.398,183.719 187.131,183.449 189.787,182.256 C192.289,181.14 194.021,178.869 195.214,176.944 C196.716,174.558 194.56,173.364 194.137,173.942 C192.327,176.636 190.672,178.561 188.748,179.793 C186.323,181.294 185.206,181.409 184.359,181.063 C183.436,180.639 182.396,179.215 182.396,177.521 C187.015,177.791 190.48,173.056 191.558,171.286 C192.674,169.438 191.481,168.014 190.403,167.282 C190.326,167.128 190.21,166.974 190.056,166.782 C189.325,165.974 189.133,165.281 187.054,166.358 C186.13,166.859 184.205,168.245 182.127,170.054 C186.592,165.281 190.749,160.007 191.288,158.968 C191.789,158.005 191.981,156.774 191.211,155.734 C190.364,154.503 189.364,154.31 188.94,154.734 C186.284,157.39 178.316,170.092 175.198,175.558 z M184.898,171.286 C186.554,169.823 188.209,168.899 188.44,169.091 C188.748,169.322 188.209,170.747 185.745,172.71 C183.974,174.134 182.704,174.481 181.472,174.711 C182.396,173.711 183.667,172.402 184.898,171.286 z" fill="#000000"/>
        <path d="M208.225,185.336 C214.038,180.255 220.004,174.134 225.624,168.014 C223.622,171.286 221.775,174.634 220.389,178.137 C219.08,181.409 219.504,185.336 223.276,185.336 C225.701,185.336 230.243,181.871 233.477,176.867 C235.17,174.25 233.977,171.517 233.13,172.864 C231.09,176.097 228.781,178.638 226.009,181.332 C223.93,183.372 223.353,183.257 223.122,183.257 C221.043,183.257 224.816,177.329 226.009,175.135 C229.242,169.245 232.976,163.664 236.287,157.851 C236.749,156.966 233.785,155.118 233.169,155.85 C227.587,162.317 220.351,169.938 213.499,176.559 C215.693,173.133 219.966,166.474 221.005,164.626 C222.16,162.625 224.546,159.853 222.006,156.812 C219.927,154.387 212.305,156.466 209.111,165.204 C207.994,168.245 209.803,172.132 210.573,170.092 C211.651,167.167 212.652,165.204 214.461,162.663 C215.808,160.7 219.196,157.197 220.389,158.198 C221.39,159.006 213.961,168.322 210.073,175.058 C208.341,178.022 205.646,182.641 205.454,182.949 C204.915,184.027 207.263,186.144 208.225,185.336 z" fill="#000000"/>
        <path d="M248.412,174.134 C246.41,177.329 244.794,178.33 243.985,178.022 C243.716,177.906 243.523,177.521 243.369,177.098 C243.639,176.598 243.831,176.136 243.985,175.751 C245.333,171.671 245.294,169.438 241.175,167.09 C239.751,166.281 238.442,166.397 236.672,167.937 C234.939,169.476 231.321,173.518 230.898,178.599 C230.705,181.178 232.707,182.064 233.361,182.564 C234.016,183.103 236.133,184.45 239.097,182.449 C240.059,181.833 241.098,180.639 241.984,179.408 C244.409,182.333 247.912,179.523 249.297,177.444 C250.799,175.096 248.72,173.595 248.412,174.134 z M234.478,181.101 C233.554,180.408 234.593,176.79 236.171,174.288 C237.326,172.402 238.481,171.17 239.443,170.4 C239.174,171.978 239.674,174.057 240.213,175.597 C240.021,175.905 239.867,176.174 239.713,176.405 C238.442,178.33 235.517,181.91 234.478,181.101 z" fill="#000000"/>
        <path d="M257.958,167.013 C258.844,165.781 259.537,164.819 259.768,164.434 C260.191,163.702 258.035,161.239 257.15,162.24 C257.035,162.394 255.379,164.549 253.686,166.82 C251.068,166.782 251.107,166.859 249.836,166.859 C248.912,166.859 248.835,169.476 251.684,169.476 C250.991,170.439 250.375,171.247 249.99,171.786 C247.527,175.289 244.832,178.522 249.182,182.603 C250.799,184.142 256.996,183.295 260.73,177.945 C262.308,175.674 260.306,174.134 259.806,174.827 C254.802,181.679 251.03,181.871 249.952,180.909 C249.182,180.216 250.683,176.983 252.3,174.75 C252.723,174.211 254.34,171.94 255.995,169.707 C257.535,169.707 259.498,169.63 260.114,169.63 C262.655,169.63 260.306,167.09 257.958,167.013 z" fill="#000000"/>
        <path d="M267.235,165.897 C263.732,166.859 258.882,173.903 258.882,177.983 C258.882,180.255 259.729,181.178 261.23,182.141 C265.926,185.259 272.47,181.178 274.972,177.252 C276.512,174.865 274.51,173.364 274.126,173.942 C270.045,179.947 264.579,182.218 262.578,180.87 C261.846,180.37 261.808,178.638 262.385,176.944 C263.039,177.56 264.156,178.445 265.157,178.253 C267.89,177.675 270.392,175.327 271.739,171.94 C272.701,169.438 272.586,168.399 269.622,166.281 C268.813,165.666 267.851,165.743 267.235,165.897 z M264.541,173.326 C266.85,170.054 268.929,168.476 269.275,168.745 C269.583,168.976 268.775,171.093 266.889,173.326 C265.465,175.019 263.848,176.405 263.27,176.097 C262.924,175.905 263.54,174.711 264.541,173.326 z" fill="#000000"/>
        <path d="M283.903,165.088 C283.056,164.241 281.439,163.433 280.785,164.241 C278.976,166.397 273.394,175.866 269.66,179.485 C269.044,180.101 271.315,180.331 271.854,180.216 C271.931,180.37 271.931,180.447 272.085,180.678 C273.741,183.411 277.089,184.566 280.015,183.372 C282.171,182.487 281.632,179.754 281.786,178.06 C282.094,174.019 281.208,171.132 284.442,167.013 C284.942,166.397 284.519,165.666 283.903,165.088 z M276.166,181.679 C274.934,181.602 274.433,179.908 274.049,178.715 C275.511,177.175 277.089,175.289 278.783,173.21 C278.706,173.903 278.668,174.634 278.591,175.366 C278.36,178.445 277.975,181.833 276.166,181.679 z" fill="#000000"/>
      </g>
    </g>
  </g>
</svg>
